<?xml version="1.0" encoding="UTF-8"?>
<svg width="153px" height="337px" viewBox="0 0 153 337" version="1.1" xmlns="http://www.w3.org/2000/svg" xmlns:xlink="http://www.w3.org/1999/xlink">
    <!-- Generator: Sketch 42 (36781) - http://www.bohemiancoding.com/sketch -->
    <title>Artboard</title>
    <desc>Created with Sketch.</desc>
    <defs></defs>
    <g id="Page-1" stroke="none" stroke-width="1" fill="none" fill-rule="evenodd">
        <g id="Artboard" fill-rule="nonzero" fill="#FFFFFF">
            <g id="arrowright" transform="translate(16.000000, 11.000000)">
                <path d="M4.88,18.45 C5.07,19.23 5.32,18.72 5.57,18.83 C5.91,19.73 5.42,19.33 5.32,19.69 C5.56,20.25 6.02,20.59 6.13,21.02 C6.13,21.02 6.13,21.16 5.98,21.08 C6.44,21.6 6.53,22.87 7.09,23.47 C7.08237014,23.515074 7.06148125,23.5568517 7.03,23.59 C7.14344462,23.4533078 7.30400762,23.3641062 7.48,23.34 C7.59,23.68 7.89,23.91 7.7,24.11 C7.64,23.9 7.55,23.91 7.44,23.83 L7.65,24.16 C7.41,24.58 7.39,23.7 7.14,23.78 C7.52570993,24.4046851 7.82826369,25.0770268 8.04,25.78 C7.75,25.99 7.56,24.56 7.48,25.36 L7.36,24.49 C7.04,25.28 7.25,23.97 6.87,24.73 C7.11,25.86 7.38,25.91 7.65,27.03 C7.91,27.22 7.89,26.86 8.15,27.03 C8.99,28.46 7.75,28.51 8.56,29.49 C8.87,29.71 9.32,29.68 9.38,30.56 L8.92,30.41 C9.24,31.47 9.64,30.83 9.77,32.01 C9.56,31.87 9.37,31.23 9.38,31.4 C9.38,32.21 9.76,31.83 9.94,32.4 L9.66,32.63 C10.13,33.72 10.82,34.84 11.34,36.04 C11.22,36.04 11.04,35.84 11.05,36.16 C11.4256224,36.9329984 11.7366823,37.7357335 11.98,38.56 C12.26,39.39 12.5,40.22 12.72,40.99 L13.23,41.44 C13.28,41.57 13.23,41.73 13.1,41.61 C13.24,42.22 13.28,41.61 13.51,41.8 C13.74,41.99 13.51,42.29 13.37,42.12 C14.2227922,43.2718488 14.8659581,44.5649508 15.27,45.94 L15.1,45.77 C15.37,46.63 16.1,46.44 16.17,47.31 L16.06,47.19 C16.75,49.01 17.89,50.84 18.19,52.35 C18.7,52.41 18.89,54.15 19.47,54 C19.5440301,54.8127544 19.7221543,55.6126331 20,56.38 C20.17,56.76 20.62,56.76 20.92,57.18 L20.65,57.34 L21.27,57.8 L21.12,58.3 L21.42,58.69 C21.34,58.51 21.35,58.26 21.42,58.25 C21.8224921,58.7641515 22.0218126,59.408384 21.98,60.06 L23.06,61.51 C22.93,61.51 22.75,61.29 22.57,61.12 C23.3,61.81 22.37,61.43 23.04,62.06 C23.04,61.92 23.23,62.06 23.29,62.06 C23.4950403,62.7590466 23.8347425,63.4112748 24.29,63.98 L24.03,63.98 C24.65,65.16 25.53,66.35 26.28,67.64 C26.09,67.13 26.47,67.04 26.72,67.4 L26.53,67.72 C26.85,67.86 26.4,67.27 26.91,67.63 C27.17,68.12 26.79,68.14 26.53,67.92 L26.99,68.43 C26.93,68.51 26.8,68.43 26.67,68.43 C26.99,68.56 27.01,69.59 27.52,69.75 L27.46,69.83 C28.25,71.1 28.7,71.61 29.36,72.63 C29.61,72.5 29.81,72.94 30.19,73.12 C30.5982862,74.0200762 31.0659851,74.8920005 31.59,75.73 C32.13,76.28 31.91,75.78 32.24,75.97 C32.06,76.16 32.67,77.04 32.24,76.68 C32.8529228,77.5874086 33.5385085,78.4435547 34.29,79.24 C34.29,79.04 34.2,78.85 34.29,78.88 C34.5,79.1 34.59,79.49 34.46,79.53 L34.39,79.53 C35.76,80.79 36.21,83.41 37.51,84.28 L37.44,84.28 L38.57,85.28 C38.95,85.86 38.17,85.06 38.35,85.57 C39.67,86.57 39.85,87.67 40.88,88.57 C40.88,89.87 43.21,91.43 43.69,92.83 L43.78,92.66 C44.14,92.83 43.97,93.07 44.11,93.3 C44.19,93.18 43.99,92.89 44.21,93.01 C45.2533333,94.1847013 46.2346671,95.4130375 47.15,96.69 C48.09,97.98 48.98,99.33 49.97,100.56 C50.69,101.46 51.1,100.45 51.73,101.81 L51.21,101.72 C52.1050039,102.490258 52.9314406,103.33677 53.68,104.25 C54.4382887,105.135905 55.2640946,105.961711 56.15,106.72 C56,106.72 55.93,106.72 55.78,106.57 C55.93,107.09 56.97,107.88 57.12,107.76 C57.34,108.04 57.05,107.94 57.12,108.17 C57.34,108.62 58.12,108.85 58.12,109.17 C58.12,109.23 57.97,109.17 57.89,109.08 C58.19,109.23 58.89,110.15 58.89,109.75 C59.39,110.46 60.11,110.84 60.46,111.44 C60.99,111.54 61.37,112.6 61.78,112.44 C61.41,112.71 62.55,113.78 63.09,114 C62.86,114 63.32,114.43 63.04,114.41 C63.48,114.84 63.94,115.18 64.04,114.94 C64.46,116.12 65.96,116.24 65.92,117.18 C67.37,118.31 68.73,119.33 69.98,120.4 C69.63,120.69 68.64,119.18 68.36,119.57 C69.5145063,120.261861 70.590769,121.076602 71.57,122 C71.82,122.32 71.27,122 71.12,121.95 C72.37,122.89 73.3,124.03 74.48,124.79 C74.48,124.79 74.31,124.79 74.18,124.68 C74.39,124.85 74.6,125.16 74.72,124.99 L74.49,124.85 C74.37,124.34 75.71,125.13 75.85,125.04 C75.11,125.16 76.75,126.04 75.71,126.13 C75.87,126.22 76.1,126.3 76.16,126.13 C76.33,126.34 76.34,126.46 76.03,126.39 C76.82,126.97 76.72,126.57 77.37,127.17 C77.3,127.24 77.14,127.17 77,127.17 C77.5520516,127.312588 78.0495909,127.615287 78.43,128.04 C78.36,128.04 78.37,128.17 78.2,128.04 C79.2,128.87 80.2,129.11 81.11,130.19 C80.51,130.19 81.37,130.62 81.18,130.95 L81.83,131.36 L81.72,131.03 C82.22,131.47 82.84,131.64 83.19,132.11 L82.72,131.9 L83.72,132.66 L83.28,132.09 C83.91,132.38 83.53,131.69 84.14,132.34 C83.98,132.25 84.64,132.78 84.76,133.17 L84.76,133.17 C85.1504298,133.277196 85.4991312,133.500365 85.76,133.81 C85.76,133.98 85.41,134.06 85.43,134.17 C85.88,134.17 86.66,135.17 87.19,135.17 C87.03,135.17 86.9,135.29 86.91,135.35 L87.28,135.35 C87.46,135.61 87.47,135.67 87.33,135.75 C88.01,136.38 87.41,135.2 88.12,136.06 C88.04,136.06 88.05,136.06 87.89,135.99 C88.67,136.78 89.63,137.23 90.33,137.99 C90.33,138.47 89.59,137.49 89.65,137.99 C90.81,138.88 92.26,139.57 93.31,140.52 L93.13,140.32 C93.62,140.03 93.78,141.18 94.5,141.44 C94.34,141.36 94.14,141.52 94.21,141.51 C95.1031596,142.243077 96.0641739,142.889334 97.08,143.44 L96.85,143.44 C97.22,143.89 97.99,144.44 98.43,144.85 C98.66,144.85 98.92,145.09 98.88,144.85 C99.88,146.63 101.97,146.77 102.88,148.29 C102.72,148.17 102.43,148.09 102.55,148.19 L103.77,148.96 C103.82,148.71 103.71,148.73 103.58,148.41 C103.909159,148.451781 104.220501,148.583236 104.48,148.79 C103.88,148.52 104.26,149.09 104.4,149.36 C104.4,149.28 104.53,149.27 104.55,149.2 C104.9,149.98 104.93,148.91 105.55,149.75 L105.43,149.81 C105.785279,149.950248 106.121302,150.135061 106.43,150.36 C106.43,150.68 106.03,150.21 105.88,150.36 C106.35,150.7 107.09,150.66 107.35,151.18 C107.11,151.09 106.82,150.88 106.58,150.79 C106.710515,151.143749 106.948248,151.447908 107.26,151.66 L107.26,151.66 L107.96,152.36 L107.81,152.14 C108.81,152.02 109.07,152.92 110.13,153.14 C109.13,152.92 109.85,153.25 109.62,153.45 C109.77,153.67 110.02,153.97 109.88,153.97 C110.4,154.05 110.38,154.59 111.12,154.69 C111.12,154.79 111.51,154.99 111.28,155.13 C111.81,155.43 111.28,154.91 111.38,154.84 C112.32,155.13 112.9,156.45 114.24,156.84 C115.24,157.37 115.64,157.23 116.6,157.72 C116.8,158.06 116.15,157.83 116.15,157.83 C116.487067,158.238966 116.919867,158.558413 117.41,158.76 C117.27,158.76 117.32,158.89 117.41,159.08 C117.78,159.31 117.86,158.96 118.24,159.42 C118.049078,159.478036 117.848697,159.498414 117.65,159.48 C118.12,159.71 118.65,159.86 119.13,160.1 C119.13,160.32 118.72,160.1 118.5,160.1 C119.03,160.39 119.86,160.88 120.16,160.77 L119.9,160.47 C120.09,160.59 119.9,160.72 119.7,160.67 C119.16,160.54 119.15,160.16 119.18,160.06 L119.53,160.23 C119.53,159.54 118.23,159.41 117.63,158.94 L118.13,158.79 L117.29,158.61 C117.22,158.42 117.29,158.17 117.6,158.34 C117.28,157.85 117.12,158.17 116.87,157.71 C116.87,157.65 116.87,157.65 116.93,157.71 L116.42,157.49 C116.56,157.49 116.52,157.2 116.75,157.49 C116.11,156.73 115.31,156.83 115.2,156.36 L115.28,156.36 C114.12,155.68 115,156.53 113.97,156.23 L113.87,155.23 L113.58,155.4 C113.48,155.31 113.27,155.13 113.38,155.06 C112.84,154.93 113.38,155.22 113.01,155.2 C112.64,154.59 111.46,154.2 111.63,153.74 C111.3,153.74 112.03,154.26 111.37,153.97 C111.52,153.43 110.66,153.55 110.32,152.97 C110.63,152.87 111.01,153.32 110.66,152.77 C110.09,152.92 109.77,151.98 109.31,151.77 C109.07,152.05 108.31,151.23 107.57,150.77 C107.68,150.71 106.41,149.63 105.85,149.04 L105.91,149.04 C105.56,149.24 104.91,148.68 104.43,148.38 C104.58,148.22 104.72,148.22 105.04,148.38 L104.59,148.04 C104.347909,148.036427 104.113243,147.95587 103.92,147.81 L104.2,147.68 C103.47578,147.301483 102.803541,146.830916 102.2,146.28 C102,146.45 102.37,147.28 101.46,146.82 C101.52,146.69 101.63,146.48 101.88,146.6 C101.719123,146.552778 101.574003,146.462942 101.46,146.34 L101.92,146.41 C101.64,146.06 101.62,146.41 101.36,146.19 C101.49,146.04 101.24,145.92 101.36,145.83 C101.48,145.74 101.55,146.08 101.7,146.11 C101.419685,145.873993 101.203071,145.57142 101.07,145.23 C101.07,145.34 100.91,145.44 100.66,145.28 C100.06,144.83 100.6,144.93 100.32,144.58 C100.09,144.58 99.8,144.17 99.61,144.39 C99.44,144.25 99.49,144.12 99.47,144 C99.08,143.86 98.02,142.91 98.17,143.43 L98.24,143.51 L98.18,143.51 L98.18,143.51 C96.99,142.96 96.18,141.73 95.18,141.04 L95.24,140.96 C94.6411633,140.513662 94.0055523,140.118914 93.34,139.78 C93.17,139.64 93.04,139.31 93.19,139.28 C92.7320893,139.080499 92.3327813,138.767249 92.03,138.37 C92.59,138.61 91.97,138.13 92.57,138.65 C92.04,138.11 92.02,137.88 91.23,137.57 C91.6,137.57 91,136.96 90.68,136.8 L90.97,137.27 C90.6716577,137.055928 90.3907759,136.818516 90.13,136.56 L90.49,136.43 C89.58,135.14 87.92,135.19 87.49,133.93 C87.03,133.85 88.02,134.59 87.57,134.57 C87.2157632,134.107877 86.9076265,133.612178 86.65,133.09 C86.04,132.32 85.65,132.87 84.97,132.09 C84.97,132.26 84.88,132.58 84.23,132.18 C83.58,131.78 83.9,131.24 84.3,131.46 C84.43,131.56 84.47,131.64 84.44,131.67 C84.64,131.79 84.9,131.94 84.77,131.67 L84.62,131.67 C84.43,131.35 83.69,130.73 83.99,130.73 C83.51,130.47 83.69,130.73 83.99,131.03 C83.42,130.31 82.92,130.11 82.3,129.4 C82.37,129.55 82.38,129.74 82.3,129.64 C81.38,128.64 81.7,129.41 80.98,128.83 C80.71,128.35 81.41,128.63 80.61,128.13 C80.27,127.66 80.73,127.81 80.96,127.89 C80.18,127.5 79.88,126.73 79.55,126.37 L79.95,126.59 C79.7476645,126.468317 79.5597952,126.324061 79.39,126.16 L79.39,126.51 C79.22,126.31 79.06,126.16 79.13,126.09 C78.82,126.03 79.02,126.52 78.48,126.32 C78.3,126 77.6,125.71 77.72,125.39 C78.46,126.21 77.84,125.08 78.57,125.66 C78.3793949,125.542712 78.2130563,125.389952 78.08,125.21 C78.08,125.16 78.15,125.21 78.22,125.21 C77.64,124.29 77.63,125.15 76.83,124.4 C77.05,124.4 76.83,123.98 76.72,123.89 C77.04,124.19 76.72,124.25 76.29,124.08 C75.87,123.5 75.66,123.64 75.4,123.38 L75.66,123.71 C75.44,123.71 75.19,123.49 74.8,123.2 C74.86,123.07 75.19,123.43 75.1,123.27 C74.49,123.13 74.42,122.2 73.72,121.85 C73.55,121.53 73.92,121.58 73.72,121.32 C72.94,120.92 73.22,120.51 72.45,120.04 C72.45,120.39 72.54,120.38 71.93,120.12 L73.1,121.01 L72.19,120.61 C72.51,120.92 72.96,121.14 73.13,121.36 C72.67,121.19 72.75,121.18 72.76,121.47 C72.57,120.79 71.76,120.79 71.41,120.14 L71.83,119.73 C71.26,118.82 70.28,118.66 69.4,117.61 L69.64,117.99 C69.35,117.99 69.01,117.43 68.64,117.2 C68.81,117.09 68.64,116.85 68.64,116.63 C68.55,116.75 67.94,115.92 67.58,116.11 L67.33,115.5 C66.63,114.65 66.05,115.01 65.33,114.22 C65.71,114.29 65.47,113.86 66.08,114.22 C65.83,113.97 65.63,113.72 65.53,113.81 C65.47,113.58 64.65,113.31 64.53,112.95 C64.36,112.95 64.18,113.02 63.91,112.73 C63.91,112.67 63.98,112.66 63.98,112.66 C63.98,112.66 63.45,112.31 63.54,112.71 C63.23,111.5 61.4,110.55 61.12,109.5 C60.54,108.99 59.85,108.37 59.35,107.87 C59.42,107.87 59.42,107.8 59.5,107.87 C58.98,107.04 58.68,107.87 58.09,106.87 C57.94,106.24 58.61,107.18 58.46,106.87 C58.83,106.32 57.46,105.96 57.28,105.16 L57.43,105.27 C57.21,104.71 56.32,104.42 55.73,103.72 C55.73,103.72 55.8,103.72 55.81,103.66 C54.9869932,103.232557 54.2429777,102.667781 53.61,101.99 C53.98,101.99 53.98,102.2 54.06,101.91 C53.77,101.64 53.83,102.27 53.25,101.72 C53.18,101.43 52.9,100.92 53.05,100.72 L53.55,101.27 C53.55,100.75 52.9,100.55 52.69,100.21 L52.84,100.15 C52.05,99.32 51.74,99.57 50.95,98.62 L50.95,98.39 C50.21,98.14 50.75,97.82 50.09,97.49 L50.26,97.08 C49.6123787,96.6116778 48.9914122,96.1075599 48.4,95.57 C49.0156277,95.8754379 49.5957842,96.247677 50.13,96.68 C49.85,96.34 49.13,95.55 48.85,95.5 C48.99,95.61 49.21,95.72 49.28,95.89 C48.5984597,95.6029479 48.0050337,95.1406277 47.56,94.55 C48.25,94.18 46.23,92.68 46.32,91.79 C45.14,90.79 44.5,89.31 43.32,87.92 C43.25,88.79 42.98,87.52 42.56,87.98 C42.28,87.67 42.19,87.53 42.2,87.48 L41.72,86.24 C41.72,85.89 42.07,86.48 42.15,86.36 C41.63,85.6 42.15,85.89 41.89,85.36 C41.79,85.59 41.45,85.29 41.2,84.82 L41.42,85.58 C40.42,84.75 41.16,84.38 40.13,83.58 L40.53,83.79 C40.03,83.33 39.06,81.79 38.3,81.57 C38.3,81.43 38.3,81.21 38.54,81.42 C37.68,80.08 36.07,78.83 35.6,77.65 L35.79,77.65 C35.58,77.43 35.26,77.39 35.18,76.99 C35.24,76.99 35.37,76.99 35.3,76.89 C34.9721216,76.6587751 34.6990227,76.3583663 34.5,76.01 L34.83,76.19 C34.13,74.79 33.17,74.44 32.36,73.41 C32.73,73.17 32.17,72.08 31.9,71.53 L31.96,71.53 C31.0558359,70.2125375 30.0529539,68.9656209 28.96,67.8 C28.79,66.68 27.32,64.68 26.71,63.11 C26.77,63.37 26.39,63.25 26.2,63.01 C26.01,62.77 25.39,62.23 25.77,62.08 L25.83,62.2 C26.03,61.75 25.52,61.11 25.23,60.56 L24.72,60.73 C24.61,58.91 22.42,57.08 22.59,55.97 C22.28,55.68 22.05,55.25 21.76,54.97 L22.02,54.86 C21.6485646,53.9297859 21.2107707,53.0274626 20.71,52.16 L21.01,52.32 C20.68,51.63 19.85,51.82 19.51,51.2 L19.79,50.82 C19.17,49.64 18.96,48.24 18.05,47.21 C18.1778751,47.1871178 18.3039177,47.2585419 18.35,47.38 C18.1,46.8 17.59,45.06 17.16,45.5 C17.5,45.33 16.61,44.24 16.16,43.64 L16.46,43.64 C16.0132607,43.3357072 15.6738368,42.8983052 15.49,42.39 C15.49,42.19 15.63,42.14 15.66,42.39 C15.53,41.71 15.21,42.01 15.03,41.2 L15.31,41.41 C15.06,40.76 15,40.85 14.66,40.58 C14.32,40.31 14.22,39.34 14.41,39.15 C14.104101,39.0309275 13.8761193,38.7693091 13.8,38.45 C13.87,38.36 13.98,38.45 14.03,38.54 C13.75,37.41 13.11,37.06 13.03,36.22 C13.0994891,36.1824021 13.1419947,36.1089833 13.14,36.03 C13.46,36.89 13.71,37.59 13.66,37.53 C13.9,37.43 13.66,36.73 14.22,37.15 C13.6538265,36.5817194 13.2142116,35.900146 12.93,35.15 C12.9228853,35.1103164 12.9228853,35.0696836 12.93,35.03 L12.98,35.09 C12.9458124,34.9397496 12.8773649,34.7994323 12.78,34.68 C12.7515395,34.4794535 12.704675,34.2819532 12.64,34.09 C12.81,33.94 12.45,33.26 12.32,32.91 C12.07,33.04 11.94,32.57 11.88,33.07 C11.88,33.01 11.94,33.12 12.03,33.35 C12.0514876,33.3994413 12.0783135,33.4463866 12.11,33.49 L12.11,33.49 L12.45,34.34 C12.1671571,34.1260852 11.997702,33.7945424 11.99,33.44 C11.781178,33.340463 11.5775791,33.2303194 11.38,33.11 C11.56,32.5 11.38,31.52 11.62,31.3 C11.11,30.3 10.67,28.82 9.94,28.3 C9.77,28.02 9.94,27.9 10.01,27.76 C10.12,27.92 10.18,28.13 10.29,28.2 C9.96,27.63 9.63,26.42 9.23,26.38 C9.13,25.56 9.69,26.71 9.29,25.67 L9.44,25.78 C9.38,23.52 7.52,22.64 7.56,20.1 L7.56,20.41 C7.31421847,19.0234533 6.98020643,17.654004 6.56,16.31 C6.09725026,14.9782408 5.82456684,13.587892 5.75,12.18 C5.69,11.4 5.45,11.37 5.17,10.94 L5.43,10.71 L4.92,9.99 C4.44,8.91 5.2,7.9 4.48,6.56 L4.31,6.78 C4.26,6.26 3.91,5.17 4.16,5.21 C4.16,5.21 3.92,5.08 3.99,4.86 L4.14,4.86 L3.66,3.64 C3.61,2.64 4.3,3.69 4.09,2.26 C3.94,1.74 3.38,0.82 3.31,1.03 C3.24,1.24 3.31,1.59 3.15,1.63 L2.99,1.15 C2.51,1.15 1.99,0.82 1.86,2.08 L2.28,2.88 L2.1,3.19 L1.97,2.48 C1.83,2.91 2.06,3.14 2.23,3.4 C2.11493617,3.4977264 2.04603426,3.63915663 2.04,3.79 L2.62,4.54 C2.46,4.67 2.2,4.23 2.2,4.8 C2.47,5.15 2.54,4.36 2.78,4.98 C2.64,5.42 2.45,5.33 2.71,5.77 C2.6,5.86 2.51,5.77 2.43,5.59 C2.64,5.99 2.68,6.69 2.96,6.86 C2.76,7.33 3.29,8.26 2.86,8.3 C3.12348665,8.59087703 3.32733752,8.93062847 3.46,9.3 C2.79,8.71 3.73,10.74 3.14,10.67 C3.71,11.09 3.75,12.5 4.2,13.36 C4.2,13.36 4.06,13.23 4.06,13.15 C4.10102573,13.5021425 4.10102573,13.8578575 4.06,14.21 C4.46,14.21 4.75,14.96 5.06,15.33 C4.85,16.05 4.52,15.06 4.21,15.33 C4.51,15.22 4.8,16.33 5,16.07 C4.9,16.61 5,16.51 4.74,16.84 C5.24,16.84 4.93,17.27 5.33,17.59 C5.27,18.34 4.93,17.88 5.27,18.59 C5.22,19.08 4.88,18.45 4.88,18.45 Z M11.44,35.98 L11.44,35.98 L11.29,35.63 L11.44,35.98 Z M12,37.44 C11.94,37.26 11.86,37.03 11.77,36.8 C11.84,36.71 11.96,36.73 12.01,36.88 C11.91,36.83 11.99,37.19 12,37.44 L12,37.44 Z M12.65,33.66 C12.77,33.88 12.75,33.97 12.71,34.02 C12.71,33.91 12.61,33.79 12.53,33.63 L12.53,33.63 C12.5849499,33.6272857 12.6397658,33.6375637 12.69,33.66 L12.65,33.66 Z" id="Shape"></path>
                <path d="M106.15,170.25 C105.5,170.68 106.05,170.76 106.03,171.03 C105.32,171.64 105.52,171.03 105.15,171.03 C104.72,171.44 104.54,171.97 104.15,172.2 C104.09,172.2 104.01,172.2 104.05,172.08 C103.71,172.67 102.54,173.08 102.16,173.82 C102.117568,173.832501 102.072432,173.832501 102.03,173.82 C102.196814,173.888899 102.332191,174.017151 102.41,174.18 C102.12,174.38 102.01,174.73 101.76,174.61 C101.94,174.5 101.9,174.41 101.94,174.29 L101.7,174.58 C101.23,174.48 102.05,174.2 101.9,173.99 C101.444959,174.530118 100.9204,175.007601 100.34,175.41 C100.05,175.2 101.34,174.6 100.56,174.76 L101.34,174.39 C100.5,174.31 101.79,174.13 100.97,174 C99.97,174.55 100.02,174.82 99.07,175.4 C98.98,175.7 99.3,175.58 99.21,175.88 C98.14,177.1 97.71,175.93 97.05,177 C96.94,177.36 97.1,177.78 96.31,178.09 L96.31,177.61 C95.42,178.23 96.14,178.42 95.09,178.89 C95.16,178.65 95.69,178.28 95.54,178.34 C94.77,178.54 95.25,178.83 94.8,179.16 L94.5,178.96 C93.61,179.69 92.75,180.65 91.77,181.46 C91.77,181.34 91.87,181.12 91.57,181.22 C90.947584,181.782394 90.2785111,182.290889 89.57,182.74 C88.87,183.22 88.16,183.69 87.5,184.1 L87.23,184.71 C87.12,184.8 86.95,184.77 87.03,184.63 C86.49,184.93 87.12,184.79 86.97,185.07 C86.82,185.35 86.51,185.23 86.63,185.07 C85.8118512,186.207839 84.7707308,187.167303 83.57,187.89 L83.68,187.68 C82.93,188.15 83.31,188.77 82.51,189.07 L82.6,188.93 C81.05,190.04 79.6,191.56 78.27,192.23 C78.35,192.73 76.76,193.35 77.06,193.87 C76.314034,194.145596 75.6078855,194.518846 74.96,194.98 C74.64,195.23 74.76,195.66 74.43,196.04 L74.21,195.82 L73.92,196.52 L73.4,196.52 L73.1,196.9 C73.25,196.79 73.49,196.73 73.53,196.82 C73.1427421,197.344135 72.5708296,197.70158 71.93,197.82 L70.82,199.18 C70.76,199.06 70.95,198.84 71.07,198.62 C70.6,199.48 70.72,198.5 70.29,199.28 C70.42,199.28 70.37,199.45 70.4,199.51 C69.7857993,199.867757 69.2514653,200.347637 68.83,200.92 L68.78,200.67 C67.78,201.55 66.92,202.67 65.89,203.67 C66.33,203.37 66.5,203.67 66.23,204.04 L65.88,203.93 C65.83,204.27 66.28,203.7 66.06,204.28 C65.65,204.64 65.54,204.28 65.69,203.98 L65.3,204.53 C65.2,204.53 65.3,204.34 65.22,204.23 C65.22,204.56 64.22,204.81 64.15,205.33 L64.05,205.33 C63.05,206.33 62.63,206.9 61.81,207.75 C62,207.96 61.62,208.25 61.54,208.65 C60.7799528,209.246906 60.0616106,209.895084 59.39,210.59 C59,211.23 59.39,210.91 59.32,211.27 C59.1,211.14 58.41,211.93 58.64,211.4 C57.9182276,212.201785 57.2501115,213.050293 56.64,213.94 C56.83,213.88 57,213.77 57,213.94 C56.84,214.18 56.48,214.35 56.42,214.24 L56.42,214.17 C55.51,215.75 53.08,216.71 52.55,218.17 L52.55,218.09 L51.82,219.41 C51.35,219.9 51.93,218.97 51.49,219.26 C50.8,220.76 49.84,221.16 49.22,222.35 C47.99,222.65 46.97,225.16 45.72,225.91 L45.91,225.96 C45.82,226.34 45.56,226.23 45.36,226.4 C45.49,226.46 45.73,226.2 45.67,226.4 C44.77,227.6 43.82,228.82 42.79,229.99 C41.76,231.16 40.7,232.32 39.71,233.51 C39,234.38 40.07,234.57 38.88,235.45 L38.88,234.93 C38.3249301,235.940834 37.6824803,236.901162 36.96,237.8 C36.2843398,238.717603 35.6824559,239.687305 35.16,240.7 C35.16,240.55 35.09,240.49 35.22,240.31 C34.76,240.56 34.22,241.74 34.39,241.86 C34.18,242.13 34.2,241.86 34,241.95 C33.62,242.26 33.59,243.1 33.25,243.17 C33.19,243.17 33.25,243.02 33.25,242.94 C33.17,243.26 32.42,244.11 32.82,244.02 C32.24,244.64 32.03,245.41 31.52,245.86 C31.52,246.39 30.59,246.96 30.88,247.31 C30.54,247.02 29.74,248.31 29.66,248.89 C29.66,248.67 29.3,249.2 29.25,248.89 C28.94,249.41 28.72,249.89 28.97,249.96 C27.97,250.62 28.18,252.09 27.26,252.25 C26.53,253.9 25.81,255.39 25.06,256.82 C24.7,256.54 25.95,255.28 25.51,255.1 C25.0937854,256.347385 24.540397,257.544716 23.86,258.67 C23.6,258.97 23.81,258.38 23.81,258.23 C23.16,259.61 22.34,260.78 21.88,262.08 L21.88,261.77 C21.76,262.01 21.52,262.28 21.72,262.36 L21.8,262.1 C22.26,261.87 21.8,263.33 21.95,263.45 C21.65,262.77 21.18,264.55 20.88,263.56 C20.83,263.73 20.81,263.97 20.95,264 C20.79,264.21 20.68,264.24 20.67,263.94 C20.31,264.83 20.67,264.64 20.24,265.39 C20.15,265.34 20.24,265.17 20.15,265.03 C20.1421205,265.589685 19.9642544,266.133746 19.64,266.59 C19.64,266.52 19.5,266.59 19.64,266.37 C19.06,267.49 19.06,268.49 18.24,269.61 C18.05,269.05 17.89,269.95 17.52,269.85 C17.43,270.08 17.35,270.32 17.28,270.56 L17.57,270.38 C17.28,270.96 17.27,271.6 16.92,272.04 L16.99,271.54 L16.52,272.66 L16.95,272.11 C16.83,272.79 17.4,272.26 16.95,272.99 C16.95,272.82 16.66,273.57 16.32,273.77 L16.32,273.77 C16.3125695,274.158224 16.1869901,274.534962 15.96,274.85 C15.8,274.91 15.63,274.58 15.53,274.61 C15.67,275.03 14.94,276.01 15.06,276.52 C15.06,276.37 14.88,276.27 14.82,276.3 L14.93,276.65 C14.73,276.88 14.67,276.91 14.55,276.79 C14.11,277.58 15.1,276.74 14.45,277.61 L14.45,277.37 C13.88,278.29 13.68,279.31 13.13,280.14 C12.66,280.24 13.43,279.32 12.99,279.49 C12.71,280.15 12.48,280.86 12.25,281.56 C12.0614124,282.246741 11.8138245,282.915897 11.51,283.56 L11.65,283.34 C12.06,283.73 11,284.18 10.96,284.92 C10.96,284.75 10.78,284.59 10.82,284.66 C10.3673011,285.694589 10.0124203,286.769275 9.76,287.87 L9.7,287.65 C9.37,288.11 9.06,288.97 8.76,289.5 C8.81,289.72 8.66,290.02 8.92,289.91 C7.49,291.33 7.86,293.3 6.72,294.61 C6.79,294.43 6.77,294.13 6.72,294.27 L6.35,295.63 C6.6,295.63 6.54,295.51 6.82,295.3 C6.87541131,295.619813 6.84078797,295.948735 6.72,296.25 C6.8,295.6 6.37,296.12 6.16,296.33 C6.24,296.33 6.28,296.43 6.36,296.43 C5.72,296.97 6.75,296.71 6.14,297.55 L6.05,297.46 C6.02640948,297.841406 5.95243359,298.21801 5.83,298.58 C5.52,298.64 5.83,298.16 5.66,298.06 C5.48,298.6 5.74,299.28 5.31,299.67 C5.31,299.42 5.44,299.09 5.46,298.84 C5.16542164,299.058206 4.9454009,299.362044 4.83,299.71 L4.83,299.71 L4.36,300.56 L4.53,300.36 C4.94,301.26 4.14,301.76 4.24,302.81 C4.16,301.81 4.06,302.58 3.8,302.41 C3.64,302.61 3.42,302.93 3.37,302.8 C3.44,303.31 2.92,303.44 3.04,304.16 C2.94,304.16 2.86,304.61 2.67,304.43 C2.54,305.01 2.88,304.36 2.98,304.43 C2.98,305.38 1.98,306.32 1.98,307.71 C1.82,308.84 2.07,309.14 1.91,310.18 C1.66,310.47 1.66,309.8 1.66,309.8 C1.3847089,310.236503 1.22312619,310.735003 1.19,311.25 C1.19,311.12 1.04,311.25 0.89,311.33 C0.78,311.75 1.14,311.71 0.83,312.21 C0.716176348,312.05069 0.634642929,311.870637 0.59,311.68 C0.52,312.19 0.59,312.68 0.47,313.24 C0.27,313.32 0.32,312.86 0.27,312.65 C0.16,313.23 -0.05,314.15 0.16,314.4 L0.37,314.07 C0.32,314.28 0.12,314.07 0.12,313.94 C0.12,313.4 0.43,313.27 0.53,313.28 L0.48,313.65 C1.14,313.45 0.85,312.2 1.1,311.49 L1.4,311.91 L1.3,311.07 C1.45,310.95 1.71,310.91 1.66,311.28 C2.02,310.83 1.66,310.78 2.02,310.41 L2.08,310.41 L2.08,309.87 C2.13,309.99 2.39,309.87 2.23,310.17 C2.74,309.35 2.39,308.63 2.8,308.39 L2.8,308.39 C3.06,307.1 2.55,308.17 2.51,307.13 L3.42,306.74 L3.17,306.52 C3.22,306.4 3.32,306.15 3.42,306.24 C3.42,305.7 3.27,306.24 3.17,305.94 C3.61,305.41 3.64,304.21 4.17,304.23 C4.03,303.94 3.78,304.75 3.87,304.05 C4.43,304.05 4.07,303.27 4.5,302.8 C4.69,303.06 4.36,303.54 4.79,303.06 C4.49,302.57 5.29,302.06 5.38,301.52 C5.05,301.37 5.62,300.45 5.8,299.63 C6.22643071,298.96141 6.60407736,298.262931 6.93,297.54 L6.93,297.54 C6.64,297.27 6.99,296.54 7.12,295.96 C7.32,296.06 7.36,296.19 7.34,296.52 L7.53,296 C7.4545007,295.772774 7.4545007,295.527226 7.53,295.3 L7.74,295.53 C7.86946597,294.728541 8.11539955,293.950313 8.47,293.22 C8.25,293.07 7.47,293.64 7.75,292.66 C7.89,292.66 8.13,292.73 8.08,292.99 C8.0830588,292.826643 8.13153522,292.667364 8.22,292.53 L8.28,292.98 C8.54,292.62 8.19,292.7 8.34,292.39 C8.52,292.47 8.57,292.21 8.7,292.31 C8.83,292.41 8.51,292.55 8.53,292.7 C8.68459888,292.37689 8.918545,292.098219 9.21,291.89 C9.09,291.89 8.96,291.79 9.05,291.52 C9.33,290.84 9.37,291.38 9.63,291.03 C9.57,290.81 9.89,290.44 9.63,290.32 C9.72,290.12 9.86,290.14 9.97,290.1 C9.97,289.7 10.63,288.46 10.18,288.73 L10.12,288.81 L10.12,288.75 L10.12,288.75 C10.34,287.49 11.29,286.45 11.66,285.26 L11.75,285.26 C12.0100248,284.578559 12.2107692,283.875954 12.35,283.16 C12.44,282.96 12.72,282.76 12.79,282.9 C12.8497727,282.416348 13.0437607,281.959091 13.35,281.58 C13.26,282.16 13.56,281.46 13.22,282.16 C13.6,281.53 13.83,281.46 13.92,280.64 C14.03,280.99 14.45,280.28 14.53,279.94 L14.14,280.32 C14.2716994,279.973807 14.4322646,279.639296 14.62,279.32 L14.84,279.63 C15.84,278.47 15.4,276.91 16.51,276.19 C16.51,275.73 16.01,276.85 15.92,276.41 C16.26,275.81 17,275.41 17.1,275.19 C17.68,274.43 17.1,274.19 17.6,273.36 C17.44,273.42 17.1,273.36 17.33,272.67 C17.56,271.98 18.15,272.14 18.04,272.57 C17.98,272.72 17.91,272.78 17.88,272.75 C17.82,272.97 17.74,273.25 17.97,273.07 L17.9,272.94 C18.16,272.69 18.56,271.83 18.64,272.12 C18.77,271.6 18.56,271.83 18.34,272.12 C18.89,271.41 18.93,270.87 19.48,270.12 C19.35,270.22 19.16,270.27 19.24,270.12 C20.01,269.02 19.32,269.5 19.71,268.69 C20.12,268.33 20,269.05 20.31,268.19 C20.69,267.76 20.64,268.19 20.62,268.47 C20.82,267.64 21.5,267.19 21.76,266.8 L21.63,267.23 C21.6988133,267.009938 21.7927669,266.798542 21.91,266.6 L21.58,266.7 C21.74,266.5 21.84,266.31 21.93,266.36 C21.93,266.05 21.49,266.36 21.55,265.79 C21.82,265.55 21.94,264.79 22.27,264.87 C21.66,265.76 22.6,264.87 22.21,265.74 C22.2812605,265.535215 22.3897485,265.345361 22.53,265.18 L22.53,265.31 C23.27,264.55 22.44,264.73 22.96,263.8 C23.05,264 23.37,263.75 23.42,263.58 C23.21,263.95 23.06,263.58 23.13,263.2 C23.58,262.67 23.4,262.5 23.58,262.2 L23.33,262.53 C23.24,262.32 23.43,262.03 23.61,261.59 C23.75,261.59 23.48,262.02 23.61,261.9 C23.61,261.28 24.47,261.01 24.61,260.27 C24.88,260.03 24.91,260.41 25.13,260.19 C25.33,259.36 25.8,259.55 26.08,258.71 C25.74,258.8 25.77,258.87 25.89,258.23 L25.29,259.53 L25.47,258.53 C25.24,258.9 25.12,259.38 24.96,259.53 C25.02,259.06 25.05,259.13 24.77,259.2 C25.39,258.88 25.2,258.1 25.77,257.64 L26.27,257.96 C27.03,257.22 26.96,256.26 27.78,255.2 L27.47,255.51 C27.36,255.24 27.87,254.79 28.01,254.38 C28.16,254.52 28.36,254.33 28.56,254.23 C28.42,254.17 29.08,253.41 28.81,253.1 L29.34,252.73 C29.99,251.87 29.5,251.39 30.1,250.54 C30.1,250.92 30.48,250.6 30.25,251.27 C30.43,250.98 30.62,250.73 30.51,250.66 C30.72,250.56 30.78,249.66 31.11,249.53 C31.11,249.36 30.96,249.21 31.18,248.89 C31.24,248.89 31.26,248.94 31.26,248.94 C31.26,248.94 31.48,248.36 31.11,248.52 C32.22,247.98 32.74,246.04 33.7,245.52 C34.07,244.86 34.52,244.08 34.9,243.52 C34.9,243.59 34.98,243.58 34.9,243.67 C35.58,243 34.76,242.87 35.53,242.1 C36.1,241.83 35.35,242.67 35.64,242.45 C36.26,242.7 36.29,241.33 37.01,240.95 L36.94,241.12 C37.43,240.79 37.49,239.87 38.04,239.12 C38.04,239.12 38.04,239.19 38.12,239.18 C38.335415,238.299985 38.7154357,237.46869 39.24,236.73 C39.24,237.09 39.11,237.12 39.42,237.14 C39.62,236.81 39.02,236.99 39.42,236.33 C39.68,236.21 40.12,235.83 40.42,235.94 L39.99,236.53 C40.5,236.44 40.55,235.77 40.83,235.53 L40.93,235.66 C41.56,234.74 41.25,234.49 42,233.54 L41.83,233.54 C41.91,232.78 42.34,233.23 42.5,232.54 L42.93,232.62 C43.2229247,231.894969 43.5567958,231.187163 43.93,230.5 C43.7815931,231.159195 43.5602285,231.799811 43.27,232.41 C43.641137,231.975934 43.9231685,231.473035 44.1,230.93 C44.03,231.09 43.97,231.33 43.82,231.43 C43.9354745,230.714658 44.2430934,230.044118 44.71,229.49 C45.22,230.08 46.19,227.81 47.08,227.72 C47.82,226.38 49.08,225.48 50.18,224.09 C49.32,224.19 50.5,223.68 49.96,223.38 C50.19,223.04 50.3,222.92 50.35,222.92 L51.42,222.19 C51.74,222.08 51.27,222.58 51.42,222.64 C52.03,221.98 51.86,222.52 52.36,222.16 C52.12,222.16 52.36,221.72 52.71,221.38 L52.03,221.75 C52.58,220.57 53.11,221.25 53.67,220.06 L53.56,220.49 C53.88,219.91 55.09,218.65 55.17,217.87 C55.3,217.87 55.53,217.87 55.37,218.07 C56.47,216.97 57.31,215.16 58.37,214.47 L58.37,214.66 C58.53,214.42 58.5,214.1 58.86,213.93 C58.86,213.99 58.86,214.12 58.99,214.02 C59.1275483,213.641448 59.3498884,213.299386 59.64,213.02 L59.54,213.38 C60.7,212.38 60.8,211.38 61.54,210.38 C61.86,210.69 62.75,209.89 63.23,209.52 L63.23,209.58 C64.2862432,208.439874 65.2524737,207.219548 66.12,205.93 C67.18,205.55 68.69,203.64 70.03,202.68 C69.8,202.8 69.82,202.41 70.03,202.17 C70.36,201.96 70.57,201.17 70.8,201.54 L70.7,201.63 C71.18,201.72 71.65,201.07 72.11,200.63 L71.82,200.18 C73.53,199.66 74.74,197.18 75.82,197.05 C76.02,196.69 76.37,196.37 76.57,196.05 L76.74,196.27 C77.520177,195.67485 78.2554963,195.023089 78.94,194.32 L78.87,194.65 C79.43,194.16 79.03,193.4 79.53,192.92 L79.96,193.1 C80.9,192.19 82.19,191.67 82.96,190.54 C83.0187625,190.65463 82.984732,190.795005 82.88,190.87 C83.36,190.49 84.88,189.58 84.35,189.27 C84.6,189.55 85.41,188.44 85.85,187.86 L85.94,188.14 C86.0480271,187.620115 86.317514,187.147638 86.71,186.79 C86.89,186.69 86.98,186.85 86.71,186.96 C87.31,186.65 86.94,186.43 87.65,186.04 L87.53,186.37 C88.06,185.96 87.96,185.92 88.12,185.52 C88.28,185.12 89.12,184.76 89.39,184.89 C89.407499,184.565324 89.593293,184.273362 89.88,184.12 C89.98,184.12 89.88,184.3 89.88,184.37 C90.88,183.8 91.02,183.09 91.8,182.83 C91.8554203,182.884123 91.9361358,182.903341 92.01,182.88 C91.29,183.41 90.7,183.88 90.74,183.78 C90.9,183.98 91.51,183.58 91.26,184.21 C91.6367769,183.519631 92.1587695,182.919168 92.79,182.45 C92.83293,182.441639 92.87707,182.441639 92.92,182.45 L92.92,182.52 C93.0511809,182.446117 93.163986,182.343567 93.25,182.22 C93.4320214,182.139809 93.6061176,182.042716 93.77,181.93 C93.97,182.05 94.5,181.52 94.77,181.32 C94.58,181.11 94.98,180.87 94.49,180.95 C94.55,180.95 94.49,181.02 94.27,181.17 C94.2287912,181.205586 94.191875,181.245858 94.16,181.29 L94.16,181.29 L93.45,181.84 C93.5725622,181.516726 93.8387553,181.269018 94.17,181.17 C94.2020865,180.947933 94.2454762,180.727647 94.3,180.51 C94.93,180.51 95.82,180.12 96.07,180.24 C96.86,179.45 98.07,178.6 98.34,177.76 C98.55,177.52 98.72,177.67 98.86,177.66 C98.75,177.81 98.57,177.93 98.53,178.05 C98.95,177.56 99.99,176.89 99.89,176.5 C100.62,176.17 99.72,177.03 100.57,176.35 L100.51,176.52 C102.62,175.81 102.86,173.8 105.26,173.1 C105.1,173.15 105.02,173.18 104.95,173.1 C106.159342,172.430077 107.313036,171.664292 108.4,170.81 C109.468947,169.940374 110.662203,169.235881 111.94,168.72 C112.65,168.42 112.59,168.18 112.94,167.78 L113.24,167.95 L113.73,167.24 C114.56,166.44 115.78,166.87 116.73,165.72 L116.47,165.64 C116.93,165.41 117.79,164.7 117.84,164.94 C117.84,164.88 117.84,164.67 118.1,164.66 L118.19,164.79 L119.13,163.91 C120.02,163.51 119.32,164.53 120.54,163.82 C120.96,163.5 121.6,162.64 121.37,162.65 C121.14,162.66 120.86,162.85 120.76,162.72 L121.13,162.4 C120.97,161.95 121.06,161.34 119.88,161.68 L119.31,162.36 L118.97,162.3 L119.56,161.93 C119.11,161.93 118.99,162.24 118.82,162.5 C118.686227,162.440947 118.533773,162.440947 118.4,162.5 L117.93,163.31 C117.75,163.2 118.06,162.81 117.54,163.01 C117.32,163.39 118.06,163.17 117.54,163.62 C117.09,163.62 117.1,163.44 116.8,163.83 C116.68,163.76 116.73,163.64 116.86,163.5 C116.58,163.84 115.95,164.12 115.86,164.44 C115.37,164.44 114.7,165.22 114.5,164.83 C114.311692,165.176549 114.052784,165.479745 113.74,165.72 C114.06,164.91 112.5,166.43 112.36,165.86 C112.17,166.53 110.88,167 110.23,167.7 C110.23,167.64 110.3,167.53 110.38,167.5 C110.05901,167.635034 109.723431,167.732352 109.38,167.79 C109.54,168.16 108.92,168.68 108.7,169.12 C107.97,169.12 108.77,168.52 108.41,168.33 C108.61,168.58 107.67,169.21 108,169.33 C107.47,169.4 107.59,169.47 107.21,169.33 C107.41,169.79 106.88,169.65 106.72,170.13 C106.01,170.32 106.32,169.85 105.72,170.4 C105.69,170.78 106.15,170.25 106.15,170.25 Z M91.81,181.53 L91.81,181.53 L92.1,181.29 L91.81,181.53 Z M90.59,182.45 L91.13,182.06 C91.23,182.06 91.25,182.22 91.13,182.31 C91.14,182.21 90.82,182.39 90.59,182.45 Z M94.36,182.06 C94.19,182.24 94.09,182.24 94.03,182.21 L94.35,181.93 L94.35,181.93 C94.3583614,181.97293 94.3583614,182.01707 94.35,182.06 L94.36,182.06 Z" id="Shape"></path>
            </g>
        </g>
    </g>
</svg>