<?xml version="1.0" encoding="UTF-8"?>
<svg width="23px" height="24px" viewBox="0 0 23 24" version="1.1" xmlns="http://www.w3.org/2000/svg" xmlns:xlink="http://www.w3.org/1999/xlink">
    <!-- Generator: Sketch 42 (36781) - http://www.bohemiancoding.com/sketch -->
    <title>Artboard</title>
    <desc>Created with Sketch.</desc>
    <defs></defs>
    <g id="Page-1" stroke="none" stroke-width="1" fill="none" fill-rule="evenodd">
        <g id="Artboard" fill-rule="nonzero" fill="#FFFFFF">
            <g id="XMLID_7_" transform="translate(1.000000, 1.000000)">
                <path d="M12.4937647,13.0557778 C12.0787059,12.6231111 11.3498824,12.3444444 10.4888824,12.3444444 C9.62788235,12.3444444 8.89905882,12.6218889 8.484,13.0557778 C8.26782353,13.2818889 8.15294118,13.5141111 8.11711765,13.8441111 C8.04670588,14.4833333 8.08623529,15.0345556 8.16158824,15.9145556 C8.23323529,16.753 8.37035294,17.8713333 8.54947059,19.0116667 C8.67670588,19.822 8.78047059,20.2595556 8.87435294,20.5736667 C9.02629412,21.0808889 9.597,21.5257778 10.4888824,21.5257778 C11.3807647,21.5257778 11.9502353,21.0821111 12.1034118,20.5736667 C12.1972941,20.2607778 12.3010588,19.8232222 12.4282941,19.0116667 C12.6074118,17.8725556 12.7445294,16.7542222 12.8161765,15.9145556 C12.8915294,15.0345556 12.9310588,14.4833333 12.8618824,13.8441111 C12.8260588,13.5141111 12.7111765,13.2818889 12.4937647,13.0557778 Z M8.22829412,9.19722222 C8.22829412,10.4341111 9.24123529,11.4375556 10.4925882,11.4375556 C11.7439412,11.4375556 12.7568824,10.4353333 12.7568824,9.19722222 C12.7568824,7.96033333 11.7427059,6.95688889 10.4925882,6.95688889 C9.24247059,6.95688889 8.22829412,7.96033333 8.22829412,9.19722222 Z M10.4641765,0.358111111 C5.16970588,0.372777778 0.831352941,4.62244444 0.765882353,9.86088889 C0.712764706,14.1044444 3.45017647,17.7344444 7.27341176,19.0642222 C7.36605882,19.096 7.45994118,19.0202222 7.44635294,18.9236667 C7.39570588,18.5948889 7.34876471,18.2636667 7.30552941,17.9373333 C7.29070588,17.8224444 7.21658824,17.7234444 7.10911765,17.677 C4.08758824,16.3704444 1.97770588,13.3723333 2.01105882,9.9 C2.05552941,5.34233333 5.817,1.62677778 10.4234118,1.58888889 C15.1323529,1.551 18.9765882,5.33133333 18.9765882,9.98188889 C18.9765882,13.42 16.8753529,16.3814444 13.8772941,17.677 C13.7698235,17.7234444 13.6957059,17.8224444 13.6808824,17.9373333 C13.6376471,18.2624444 13.5907059,18.5936667 13.5400588,18.9224444 C13.5252353,19.019 13.6191176,19.0947778 13.713,19.063 C17.4991765,17.7454444 20.2205294,14.1716667 20.2205294,9.98066667 C20.2192941,4.66644444 15.8401765,0.342222222 10.4641765,0.358111111 Z M10.2875294,4.774 C13.2892941,4.65911111 15.7672941,7.04122222 15.7672941,9.98555556 C15.7672941,11.4827778 15.1261765,12.8345556 14.1008824,13.7878889 C14.0144118,13.8685556 13.9674706,13.9834444 13.9736471,14.1007778 C13.9934118,14.4588889 13.986,14.8072222 13.9625294,15.1995556 C13.9563529,15.3046667 14.0749412,15.3706667 14.1626471,15.312 C15.8809412,14.1496667 17.0112353,12.1965556 17.0112353,9.98555556 C17.0112353,6.34577778 13.9464706,3.40022222 10.2368824,3.54322222 C6.78917647,3.67522222 4.02211765,6.48755556 3.97888235,9.90244444 C3.95047059,12.1476667 5.08694118,14.1362222 6.82747059,15.3132222 C6.91517647,15.3718889 7.03376471,15.3046667 7.02635294,15.2007778 C7.00164706,14.8072222 6.99423529,14.4588889 7.01523529,14.1007778 C7.02141176,13.9834444 6.97570588,13.8685556 6.888,13.7878889 C5.83058824,12.8064444 5.18205882,11.3996667 5.22405882,9.84622222 C5.29941176,7.11211111 7.52664706,4.87911111 10.2875294,4.774 Z" id="Shape"></path>
            </g>
        </g>
    </g>
</svg>