<?xml version="1.0" encoding="UTF-8"?>
<svg width="975px" height="383px" viewBox="0 0 975 383" version="1.1" xmlns="http://www.w3.org/2000/svg" xmlns:xlink="http://www.w3.org/1999/xlink">
    <!-- Generator: Sketch 40.3 (33839) - http://www.bohemiancoding.com/sketch -->
    <title>Science Friday logo (1)</title>
    <desc>Created with Sketch.</desc>
    <defs>
        <polygon id="path-1" points="0.158393782 382.617034 974.404231 382.617034 974.404231 0.649398305 0.158393782 0.649398305"></polygon>
    </defs>
    <g id="Page-1" stroke="none" stroke-width="1" fill="none" fill-rule="evenodd">
        <g id="Science-Friday-logo-(1)">
            <mask id="mask-2" fill="white">
                <use xlink:href="#path-1"></use>
            </mask>
            <g id="Clip-2"></g>
            <polyline id="Fill-1" fill="#F74225" mask="url(#mask-2)" points="333.506028 9.91256356 333.506028 28.4441737 317.402661 37.7046992 301.296653 28.4441737 301.296653 9.91256356 317.402661 0.649398305 333.506028 9.91256356"></polyline>
            <path d="M213.306267,180.553847 C187.931583,180.553847 170.370992,159.480081 170.370992,134.185225 L170.370992,133.768131 C170.370992,108.473275 188.330207,87.8166017 213.306267,87.8166017 C228.139845,87.8166017 239.758028,94.1363559 251.17294,104.468653 L271.909326,80.6415424 C258.150187,67.159928 241.460762,57.8835636 213.551777,57.8835636 C168.029404,57.8835636 136.313689,92.235678 136.313689,134.185225 L136.313689,134.604958 C136.313689,176.961038 168.665619,210.486886 212.239749,210.486886 C240.824547,210.486886 257.759482,200.378975 272.981124,184.141377 L252.242098,163.268237 C240.584316,173.817 230.238562,180.553847 213.306267,180.553847 L213.306267,180.553847 Z M300.179977,379.742258 L332.769497,379.742258 L332.769497,232.215331 L300.179977,232.215331 L300.179977,379.742258 Z M300.459806,207.950008 L333.046687,207.950008 L333.046687,60.4230805 L300.459806,60.4230805 L300.459806,207.950008 Z M2.73757254,379.742258 L35.3244534,379.742258 L35.3244534,322.629525 L105.98392,322.629525 L105.98392,293.11622 L35.3244534,293.11622 L35.3244534,261.710157 L115.498106,261.710157 L115.498106,232.215331 L2.73757254,232.215331 L2.73757254,379.742258 L2.73757254,379.742258 Z M233.60971,283.00303 C233.60971,295.431352 224.533746,303.878809 208.63365,303.878809 L175.640225,303.878809 L175.640225,261.496331 L207.994795,261.496331 C223.892251,261.496331 233.60971,268.66875 233.60971,282.585936 L233.60971,283.00303 L233.60971,283.00303 Z M266.597855,281.316178 L266.597855,280.899085 C266.597855,266.984538 262.154909,255.385123 253.907873,247.164691 C244.195694,237.484432 229.602347,232.215331 210.769326,232.215331 L143.092943,232.215331 L143.092943,379.742258 L175.640225,379.742258 L175.640225,332.52361 L201.2525,332.52361 L232.973495,379.742258 L271.080399,379.742258 L234.87686,327.048602 C253.707241,320.087369 266.597855,305.124809 266.597855,281.316178 L266.597855,281.316178 Z M70.2186036,119.634479 C44.6459275,113.114097 38.2996166,109.941021 38.2996166,100.247564 L38.2996166,99.8331102 C38.2996166,92.655411 44.8386399,86.9612966 57.3279896,86.9612966 C69.8226192,86.9612966 82.7105933,92.4547839 95.8282383,101.517322 L112.760534,77.0724915 C97.7316036,65.0639025 79.3394456,58.3032966 57.7292539,58.3032966 C27.5182798,58.3032966 5.90280829,76.0033602 5.90280829,102.784441 L5.90280829,103.204174 C5.90280829,132.503653 25.1819715,140.710886 54.9864016,148.297758 C79.7354301,154.622792 84.8462694,158.843881 84.8462694,167.072233 L84.8462694,167.491966 C84.8462694,176.134771 76.7945855,181.385394 63.4710285,181.385394 C46.5466528,181.385394 32.5921606,174.447919 19.2712435,163.484703 L0,186.461788 C17.7612228,202.261174 40.403614,210.072432 62.8427332,210.072432 C94.7590803,210.072432 117.203479,193.618369 117.203479,164.32153 L117.203479,163.904436 C117.203479,138.192487 100.273824,127.443097 70.2186036,119.634479 L70.2186036,119.634479 Z" id="Fill-3" fill="#F74225" mask="url(#mask-2)"></path>
            <path d="M397.948539,121.397886 C401.800148,100.028458 415.949992,86.3752542 434.666858,86.3752542 C453.898503,86.3752542 467.493969,99.7090381 470.664484,121.397886 L397.948539,121.397886 L397.948539,121.397886 Z M434.944047,57.8835636 C394.062611,57.8835636 363.255021,90.833928 363.255021,134.538962 C363.255021,178.811559 394.896819,210.922458 438.552785,210.922458 C463.13022,210.922458 483.790049,201.469225 498.977373,183.227996 L478.953759,164.416564 C466.580565,176.47003 454.093855,182.457165 439.072845,182.457165 C417.502251,182.457165 402.196132,168.782843 398.307565,148.297758 L504.447238,148.297758 C504.447238,148.297758 504.64787,147.289343 504.843223,144.892377 C505.038575,142.474292 505.281446,139.676072 505.281446,137.023042 C505.281446,115.291958 499.019611,95.5909025 487.639018,81.5496441 C475.070472,66.0723178 456.868386,57.8835636 434.944047,57.8835636 L434.944047,57.8835636 Z M867.073964,121.397886 C870.920293,100.028458 885.109736,86.3752542 903.826601,86.3752542 C923.013368,86.3752542 936.653712,99.7090381 939.787269,121.397886 L867.073964,121.397886 L867.073964,121.397886 Z M956.761803,81.5496441 C944.230215,66.0723178 925.991171,57.8835636 904.061552,57.8835636 C863.185396,57.8835636 832.380446,90.833928 832.380446,134.538962 C832.380446,178.811559 864.022244,210.922458 907.67821,210.922458 C932.253005,210.922458 952.915474,201.469225 968.097518,183.227996 L948.071264,164.416564 C935.70599,176.47003 923.20872,182.457165 908.227308,182.457165 C886.619756,182.457165 871.310997,168.782843 867.43299,148.297758 L973.567383,148.297758 C973.567383,148.297758 973.757456,147.289343 973.963368,144.892377 C974.15872,142.474292 974.404231,139.676072 974.404231,137.023042 C974.404231,115.291958 968.137117,95.5909025 956.761803,81.5496441 L956.761803,81.5496441 Z M765.894655,180.458814 C740.512052,180.458814 722.951461,159.382407 722.951461,134.090191 L722.951461,133.651979 C722.951461,108.372962 740.950275,87.7215678 765.894655,87.7215678 C780.720313,87.7215678 792.333218,94.041322 803.750769,104.370979 L824.495075,80.5465085 C810.772894,67.0596144 794.04387,57.78325 766.126966,57.78325 C720.609873,57.78325 688.891518,92.1406441 688.891518,134.090191 L688.891518,134.502004 C688.891518,176.871284 721.288326,210.383932 764.857176,210.383932 C793.402376,210.383932 810.334671,200.260182 825.558953,184.046343 L804.819927,163.165284 C793.207023,173.714047 782.816391,180.458814 765.894655,180.458814 L765.894655,180.458814 Z M732.587083,291.429369 L697.25735,232.215331 L659.195324,232.215331 L716.09037,321.584153 L716.09037,379.742258 L748.682531,379.742258 L748.682531,320.945314 L805.574938,232.215331 L768.545111,232.215331 L732.587083,291.429369 L732.587083,291.429369 Z M471.063109,306.397208 C471.063109,332.52361 453.061655,350.44278 426.417181,350.44278 L401.24049,350.44278 L401.24049,261.491051 L426.417181,261.491051 C453.061655,261.491051 471.063109,279.851072 471.063109,305.977475 L471.063109,306.397208 L471.063109,306.397208 Z M426.417181,232.215331 L368.653609,232.215331 L368.653609,379.742258 L426.417181,379.742258 C472.963834,379.742258 505.125692,347.491449 505.125692,305.977475 L505.125692,305.541903 C505.125692,264.027928 472.963834,232.215331 426.417181,232.215331 L426.417181,232.215331 Z M565.072459,114.069716 L636.793163,207.847055 L664.506795,207.847055 L664.506795,60.3016483 L632.352858,60.3016483 L632.352858,151.154055 L562.968461,60.3016483 L532.915881,60.3016483 L532.915881,207.847055 L565.072459,207.847055 L565.072459,114.069716 L565.072459,114.069716 Z M621.368249,325.029131 C621.368249,343.684814 600.911692,355.498055 579.977313,355.498055 C563.522839,355.498055 554.523433,348.10389 554.523433,335.596373 L554.523433,335.060487 C554.523433,320.551979 567.802111,312.220674 588.620334,312.220674 C600.074845,312.220674 612.015096,314.739072 621.368249,318.308123 L621.368249,325.029131 L621.368249,325.029131 Z M590.286109,231.064364 C566.656396,231.064364 550.51871,236.080042 534.225269,243.395013 L543.784334,269.91739 C556.820142,264.46614 569.275174,260.72286 585.571254,260.72286 C608.292842,260.72286 620.81915,268.193581 620.81915,291.468966 L620.81915,294.219669 C612.215728,290.217686 598.369472,286.849263 581.173187,286.849263 C543.89785,286.849263 521.611845,306.98853 521.611845,336.705102 L521.611845,337.259466 C521.611845,368.525619 548.771098,382.775424 574.029627,382.775424 C592.981443,382.775424 610.270124,376.471508 620.536681,363.68153 L620.536681,379.742258 L653.482588,379.742258 L653.482588,295.547504 C653.482588,254.949551 632.471653,231.064364 590.286109,231.064364 L590.286109,231.064364 Z" id="Fill-4" fill="#EFB719" mask="url(#mask-2)"></path>
        </g>
    </g>
</svg>