<?xml version="1.0" encoding="UTF-8"?>
<svg width="6px" height="36px" viewBox="0 0 6 36" version="1.1" xmlns="http://www.w3.org/2000/svg" xmlns:xlink="http://www.w3.org/1999/xlink">
    <!-- Generator: Sketch 42 (36781) - http://www.bohemiancoding.com/sketch -->
    <title>|</title>
    <desc>Created with Sketch.</desc>
    <defs></defs>
    <g id="Page-1" stroke="none" stroke-width="1" fill="none" fill-rule="evenodd">
        <path d="M2.52,35.24 L2.4,35.16 L1.92,35.28 L1.72,35.52 L1.6,35.44 L1.48,35.08 L1.2,35.04 L1.16,34.92 L1.4,34.92 L1.6,34.76 L1.96,34.76 L2.04,34.64 L1.96,34.48 L1.64,34.52 L1.56,34.64 L1.16,34.64 L1.2,34.28 L1.36,34.24 L1.36,33.76 L1.44,33.68 L1.44,33.48 L1.68,33.28 L1.52,33.04 L1.4,32.48 L1.4,32 L1.68,32 L1.44,31.56 L1.48,31.4 L1.32,31.16 L1.4,30.96 L1.12,30.8 L1.04,30.6 L1.56,30.64 L1.24,30.08 L1.2,29.76 L1.04,29.52 L1.04,29.36 L1.4,29.52 L1.48,29.32 L1.32,29.12 L1.32,28.68 L1.04,28.28 L1.08,28.08 L1.24,28.16 L1.36,28.4 L1.44,28.36 L1.52,28.04 L1.28,27.68 L1.32,27.44 L1.4,27.44 L1.28,27.2 L1.44,27 L1.28,26.36 L1.36,26.2 L1.16,26 L1.44,25.76 L1.24,25.28 L1.36,25.12 L1.16,24.92 L1.04,24.6 L1.32,24.6 L1.28,24.44 L1.16,24.4 L1.12,24.24 L1.28,23.72 L1.08,23.12 L1.24,22.56 L1.12,21.8 L1.28,21.48 L1.2,20.44 L1.36,20.24 L1.36,20.04 L1.2,19.72 L1.4,19.52 L1.36,19.36 L1.12,19.4 L1.12,19.24 L1.2,19.16 L1.32,19.2 L1.44,18.76 L1.36,18.64 L1.12,18.64 L1,18.48 L1.08,18.32 L1.36,18.52 L1.44,18.4 L1.36,18.08 L1.12,18.04 L1.44,17.64 L1.44,17.52 L1.32,17.4 L1.08,17.48 L1,17.32 L1.04,17.16 L1.28,17.04 L1.36,16.92 L1.32,16.8 L0.96,16.8 L1.2,16.72 L1.4,16.44 L1.32,15.96 L1.44,15.72 L1.28,15.48 L1.48,15.28 L1.24,15.08 L1.16,14.92 L1.24,14.84 L1.16,14.48 L1.4,14.48 L1.4,14.28 L1,14.48 L1.12,14.2 L1.24,14.2 L1.24,14.08 L1.4,13.84 L1.24,13.8 L1.36,13.24 L1.32,13.08 L1.2,13.08 L1.48,12.8 L1.4,12.48 L1.28,12.36 L1.48,12 L1.4,10.96 L1.48,10.32 L1.36,10.04 L1.16,10.04 L1.04,9.92 L1.04,9.76 L1.28,9.84 L1.32,9.4 L1.44,9.24 L1.36,8.72 L1,8.6 L1.04,8.48 L1.24,8.44 L1.4,8.2 L1.44,7.56 L1.08,7.52 L1,7.28 L1.28,7.16 L1.48,6.96 L1.48,6.84 L1.36,6.72 L1.08,6.8 L0.96,6.76 L1.12,6.48 L1.44,6.44 L1.36,6.28 L0.84,6.04 L0.96,5.84 L1.08,5.92 L1.4,5.96 L1.52,5.88 L1.48,5.52 L1.2,5.4 L1.28,5.28 L1.52,5.16 L1.56,5 L1.2,5.08 L1.16,4.96 L1.56,4.6 L1.44,4.32 L1.16,4.16 L1.28,3.96 L1.56,4 L1.44,3.76 L1.36,3.88 L1.24,3.84 L1.12,3.68 L1.44,3.6 L1.56,3.2 L1.32,3.04 L1.04,3.24 L0.96,2.96 L1.08,2.72 L1,2.44 L1.12,2.28 L1.36,2.4 L1.6,2.2 L1.64,2.04 L1.32,1.68 L1.44,1.52 L1.68,1.64 L2,1.56 L2.16,1.32 L2.4,1.16 L2.72,1.12 L2.64,1.44 L2.72,1.56 L2.88,1.52 L3.32,1.08 L3.44,1.16 L3.52,1.68 L3.6,1.76 L3.72,1.64 L3.64,1.2 L3.8,1.2 L3.88,1.52 L4,1.56 L4.24,1.32 L4.4,1.32 L4.64,1.48 L4.64,1.64 L4.4,1.56 L4.28,1.72 L4.28,1.92 L4.4,2.24 L4.92,3 L4.84,3.2 L4.4,3 L4.28,3.04 L4.48,3.44 L4.88,3.24 L5,3.32 L5.04,3.52 L4.6,3.6 L4.52,3.72 L4.64,4.08 L4.76,4.2 L4.68,4.64 L4.52,4.92 L4.64,5.2 L4.68,5.8 L4.56,5.92 L4.56,6.36 L4.84,6.52 L4.84,6.68 L4.56,6.72 L4.48,6.84 L4.8,7.12 L4.52,7.4 L4.52,7.68 L4.84,7.8 L4.84,8 L4.48,8.04 L4.36,8.16 L4.52,8.4 L4.36,8.68 L4.52,8.96 L4.52,9.12 L4.32,9.16 L4.28,9.32 L4.44,9.92 L4.4,10.08 L4.64,10.36 L4.36,10.76 L4.44,11.08 L4.36,11.24 L4.52,11.48 L4.32,11.72 L4.4,12 L4.52,11.96 L4.52,12.12 L4.4,12.24 L4.52,12.68 L4.84,12.76 L4.76,12.92 L4.52,13.12 L4.64,13.28 L4.88,13.16 L5,13.24 L5.12,13.48 L4.96,13.56 L4.48,13.36 L4.4,13.48 L4.52,14 L4.32,14.2 L4.32,14.4 L4.52,14.68 L4.56,15.04 L4.72,15.28 L4.84,15.28 L4.92,15.4 L4.6,15.68 L4.8,15.88 L5.08,16 L5.08,16.16 L4.96,16.2 L4.68,16.12 L4.6,16.2 L4.64,16.36 L4.92,16.44 L4.92,16.72 L4.72,16.76 L4.72,16.84 L5,17.08 L4.68,17.2 L4.56,17.32 L4.52,17.52 L4.6,17.64 L4.96,17.64 L4.92,17.84 L4.64,18.04 L4.68,18.24 L4.56,18.44 L4.6,18.8 L4.52,19.88 L4.6,20.6 L4.68,20.76 L4.48,21.08 L4.56,21.4 L4.72,21.48 L4.64,21.64 L4.48,21.68 L4.4,21.8 L4.48,22.56 L4.4,22.84 L4.56,23.12 L4.88,23.28 L4.6,23.52 L4.52,23.68 L4.76,24.04 L4.68,24.16 L4.52,24.2 L4.44,24.32 L4.52,25 L4.68,25.24 L4.84,25.28 L4.52,25.4 L4.4,25.52 L4.56,25.76 L4.44,26.04 L4.6,26.4 L4.4,26.68 L4.48,26.96 L4.76,26.92 L4.8,27 L4.48,27.12 L4.4,27.28 L4.76,27.68 L4.6,27.76 L4.4,27.72 L4.28,27.84 L4.32,28.16 L4.44,28.28 L4.28,28.52 L4.36,28.68 L4.68,28.8 L4.76,28.96 L4.32,28.96 L4.2,30.4 L4.32,30.64 L4.76,30.52 L4.68,30.72 L4.44,30.92 L4.28,30.92 L4.16,31.04 L4.32,31.2 L4.64,31.16 L4.92,31.56 L4.36,31.48 L4.28,31.6 L4.32,31.8 L4.56,32.04 L4.36,32.32 L4.52,32.4 L4.68,32.36 L4.64,32.52 L4.28,32.8 L4.28,32.96 L4.44,33.24 L4.24,33.52 L4.2,33.84 L4.48,33.96 L4.32,34.2 L4.72,34.52 L4.56,34.8 L4.68,35.12 L4.92,35.08 L4.96,35.32 L4.84,35.32 L4.76,35.2 L4.52,35.28 L4.36,35.16 L4.24,35.44 L3.12,35.6 L2.84,35.48 L2.56,35.48 L2.48,35.36 L2.52,35.24 Z M4.92,14.4 L4.96,14.52 L5,14.72 L4.88,14.72 L4.64,14.56 L4.72,14.44 L4.92,14.4 Z M5.12,1.92 L5.08,2.12 L5.04,2.28 L4.88,2.32 L4.96,1.88 L5.12,1.92 Z M1.64,1.36 L1.52,1.44 L1.36,1.36 L1.32,1.16 L1.6,1.2 L1.64,1.36 Z M2.56,34.64 L2.72,34.72 L3.04,34.76 L2.8,34.52 L2.68,34.52 L2.56,34.64 Z M4.92,34.32 L5.08,34.32 L5.24,34.52 L5.12,34.56 L4.88,34.44 L4.92,34.32 Z M2.24,34.68 L2.32,34.84 L2.52,34.84 L2.48,34.68 L2.36,34.6 L2.24,34.68 Z M0.76,1.28 L0.6,1.2 L0.48,1.24 L0.56,1.4 L0.72,1.44 L0.76,1.28 Z M3.76,0.56 L3.76,0.92 L3.92,0.96 L3.8,0.56 L3.76,0.56 Z M4.88,18.12 L4.96,18.2 L5,18.36 L4.72,18.32 L4.88,18.12 Z M3.6,34.52 L3.64,34.6 L3.88,34.56 L3.84,34.4 L3.6,34.52 Z M1.08,33.4 L1.08,33.04 L1.12,33.2 L1.24,33.28 L1.24,33.4 L1.08,33.4 Z M1,1.16 L0.88,1.2 L0.76,1.16 L0.88,1 L0.96,1 L1,1.16 Z M3.28,35.24 L3.44,35.2 L3.48,35.12 L3.36,35.04 L3.24,35.12 L3.28,35.24 Z M4.52,29.96 L4.68,29.96 L4.64,30.16 L4.52,30.12 L4.52,29.96 Z M4.4,35.12 L4.4,34.92 L4.28,34.84 L4.28,35.04 L4.4,35.12 Z M1.36,2.8 L1.48,2.8 L1.52,2.64 L1.4,2.6 L1.36,2.8 Z M4.92,34.12 L4.88,34.04 L4.96,33.92 L5.08,34 L4.92,34.12 Z M1.08,31.8 L1.2,31.8 L1.2,32 L1.12,31.96 L1.08,31.8 Z M4,25.24 L4.12,25.24 L4.2,25.12 L4.04,25.12 L4,25.24 Z M3.24,33.84 L3.36,33.8 L3.36,33.72 L3.24,33.72 L3.24,33.84 Z M4.88,9.6 L4.92,9.48 L5,9.48 L4.88,9.72 L4.88,9.6 Z M4.64,33.88 L4.48,33.76 L4.6,33.72 L4.64,33.88 Z M4.96,20.76 L5,20.88 L4.84,20.84 L4.96,20.76 Z M1.68,0.44 L1.68,0.32 L1.56,0.32 L1.68,0.44 Z M5.48,15.2 L5.32,15.28 L5.48,15.28 L5.48,15.2 Z M1.76,34.12 L1.84,34 L1.76,33.96 L1.76,34.12 Z M0.08,1.16 L0.24,1.24 L0.24,1.16 L0.08,1.16 Z M2.52,0.28 L2.56,0.44 L2.6,0.32 L2.52,0.28 Z M5.32,-0.76 L5.44,-0.76 L5.36,-0.8 L5.32,-0.76 Z M1.08,15.92 L1.12,15.88 L1.2,15.88 L1.08,15.92 Z M0.64,23.68 L0.72,23.64 L0.68,23.64 L0.64,23.68 Z" id="|" fill="#FFFFFF"></path>
    </g>
</svg>