<?xml version="1.0" encoding="UTF-8"?>
<svg width="1165px" height="4px" viewBox="0 0 1165 4" version="1.1" xmlns="http://www.w3.org/2000/svg" xmlns:xlink="http://www.w3.org/1999/xlink">
    <!-- Generator: Sketch 43.2 (39069) - http://www.bohemiancoding.com/sketch -->
    <title>hr</title>
    <desc>Created with Sketch.</desc>
    <defs></defs>
    <g id="Page-1" stroke="none" stroke-width="1" fill="none" fill-rule="evenodd">
        <g id="hr" transform="translate(-1.000000, 0.000000)" fill-rule="nonzero" fill="#7A287B">
            <path d="M1165.06,2.36 C1165.67,2.27 1165.33,2.08 1163.64,2.12 L1162.44,2.45 L1165.06,2.36 Z" id="Shape"></path>
            <path d="M1153.7,1.75 C1151.7,1.91 1149.42,2.19 1150.7,2.5 C1152.7,2.18 1153.14,2.31 1155.26,1.93 C1156.95,1.93 1158.21,2.03 1157.92,2.16 C1158.52,2.07 1160.54,2.23 1161.45,2.02 C1158.82687,1.76589113 1156.18614,1.74915652 1153.56,1.97 C1153,1.9 1153.56,1.81 1153.7,1.75 Z" id="Shape"></path>
            <path d="M988.64,1.3 L989.7,1.3 C989.41,1.32 989,1.31 988.64,1.3 Z" id="Shape"></path>
            <path d="M886.37,1.16 C886.751426,1.18028733 887.133921,1.1568008 887.51,1.09 C887.128567,1.06609129 886.745642,1.08960426 886.37,1.16 Z" id="Shape"></path>
            <path d="M868.91,0.8 L869.91,0.8 C869.577131,0.775126875 869.242869,0.775126875 868.91,0.8 L868.91,0.8 Z" id="Shape"></path>
            <path d="M988.64,1.3 L985.91,1.2 C986.81485,1.31887701 987.728878,1.35235788 988.64,1.3 L988.64,1.3 Z" id="Shape"></path>
            <path d="M1130.94,2.56 C1131.51,2.56 1131.94,2.56 1132.42,2.47 L1131.03,2.47 L1130.94,2.56 Z" id="Shape"></path>
            <path d="M1033.72,1 L1034.55,1 C1034.79,1 1035.02,0.92 1035.24,0.87 L1033.72,1 Z" id="Shape"></path>
            <path d="M1068.32,0.95 C1067.84149,0.944805539 1067.37202,1.08043083 1066.97,1.34 C1067.53161,1.21598744 1068.10486,1.1522931 1068.68,1.15 C1068.69,1.09 1068.59,1 1068.32,0.95 Z" id="Shape"></path>
            <path d="M1123.19,1.42 L1124.19,1.42 L1123.19,1.42 Z" id="Shape"></path>
            <path d="M1009,1 C1008.90093,0.945996728 1008.79219,0.912017846 1008.68,0.9 C1008.68,0.9 1008.77,0.93 1009,1 Z" id="Shape"></path>
            <path d="M41.23,3.47 L41.23,3.47 C41,3.45 41,3.47 41.23,3.47 Z" id="Shape"></path>
            <path d="M1.12,2.09 L1.68,2.09 C1.74,2.04 1.8,1.98 1.8,1.93 L1.12,2.09 Z" id="Shape"></path>
            <path d="M837,0.46 L837.14,0.46 C837.94,0.43 837.46,0.44 837,0.46 Z" id="Shape"></path>
            <path d="M543.59,0.78 C546.91,1.03 538.18,1.1 543.19,1.38 C542.72,1.28 547.73,0.94 543.59,0.78 Z" id="Shape"></path>
            <path d="M1130,2.52 L1128.58,2.52 C1129.27,2.53 1129.71,2.53 1130,2.52 Z" id="Shape"></path>
            <polygon id="Shape" points="543.19 1.38 543.19 1.38 543.71 1.38"></polygon>
            <path d="M763.32,0.66 C763.566511,0.719384495 763.817267,0.759505489 764.07,0.78 C763.827463,0.702487445 763.574614,0.662031655 763.32,0.66 L763.32,0.66 Z" id="Shape"></path>
            <path d="M818.18,1 L816.82,1 L818.18,1 Z" id="Shape"></path>
            <path d="M734.84,1.06 C734.1,1.06 733.84,1 732.84,1.06 L733.15,1.06 C733.712429,1.01485027 734.277571,1.01485027 734.84,1.06 L734.84,1.06 Z" id="Shape"></path>
            <polygon id="Shape" points="705.2 1.08 705.75 1.14 706.69 1.14"></polygon>
            <path d="M131.32,3.3 C130.857706,3.25117283 130.399744,3.16760323 129.95,3.05 C130.41,3.25 126.05,3.32 131.32,3.3 Z" id="Shape"></path>
            <path d="M1130.93,2.4 C1130.64534,2.48848241 1130.34796,2.52903501 1130.05,2.52 L1131.05,2.52 C1131.12,2.46 1131.14,2.42 1130.93,2.4 Z" id="Shape"></path>
            <path d="M733.64,3.28 L728.93,3.28 C730.24,3.27 732,3.28 733.64,3.28 Z" id="Shape"></path>
            <path d="M344,3.17 L342.92,3.17 C343.279681,3.19142866 343.640319,3.19142866 344,3.17 L344,3.17 Z" id="Shape"></path>
            <path d="M715,3.29 C714.16,3.19 713.27,3.13 712.35,3.1 C712.165578,3.11379369 711.981998,3.1371585 711.8,3.17 L715,3.29 Z" id="Shape"></path>
            <path d="M98.92,3.72 C103.41,3.72 101.03,3.36 101.98,3.15 C107.34,3.04 104.46,3.42 106.28,3.61 C109.62,3.51 112.19,3.17 114.68,3.18 C114.87,3.24 115.35,3.26 114.78,3.34 C118.32,3.04 125.28,3.34 129.4,2.95 C129.582624,2.9612771 129.76359,2.991438 129.94,3.04 C129.27,2.86 129.17,2.67 129.31,2.53 C130.803812,2.39926501 132.306188,2.39926501 133.8,2.53 C133.158909,2.51286425 132.517987,2.5699097 131.89,2.7 L134,2.6 C135.9,2.95 131.12,2.72 131.12,2.98 C135.23,2.87 140.02,2.58 143.17,2.67 C143.83,3.01 135.8,2.79 140.01,3.09 L135.13,3 C138.85,3.53 132.13,3 135.59,3.54 C142,3.64 142.76,3.36 149.16,3.46 C150.6,3.27 148.68,3.18 150.16,2.99 C159.25,2.65 157.32,3.84 164,3.39 C166.352762,2.89704058 168.765151,2.7521625 171.16,2.96 L169.54,3.34 C175.75,3.34 173.08,2.79 179.54,3.04 C178.38,3.19 174.66,3.17 175.6,3.21 C179.81,3.51 178.6,2.99 181.82,2.99 L182.49,3.33 C189.1,3.27 196.38,3.03 203.71,2.96 C203.3,3.06 202.05,3.17 203.76,3.27 C212.99,3.1 223.47,3.27 232.38,3.5 L235.78,3.21 C236.57,3.21 237.25,3.34 236.39,3.4 C239.86,3.51 236.57,3.21 238.24,3.1 C240.24,3.1 240.85,3.27 239.6,3.36 C245.73,3.11 257.05,2.82 263.5,3.13 L262.24,3.22 C267.24,3.34 267.91,2.62 272.57,2.89 L271.68,2.94 C282.59,3.06 294.68,2.79 302.97,3.23 C304.55,2.81 313.77,3.41 314.47,2.82 C320.7,3.11 318.92,3.22 327.69,3.41 C330.03,3.41 331.18,3.04 334.08,2.98 L334.15,3.29 L338.08,2.97 L340.17,3.34 L342.89,3.26 C342.168742,3.30725586 341.444744,3.22944298 340.75,3.03 C344.237699,2.90957411 347.729551,3.03320906 351.2,3.4 L361.2,3.14 C360.129715,3.29165743 359.050875,3.37515897 357.97,3.39 C363.33,3.07 358.97,3.71 363.85,3.39 C363.19,3.32 364.21,3.21 364.32,3.14 C366.77,3.33 372.32,3.32 376.46,3.24 L375.67,3.45 C383.12,3.5 391.37,3.34 399.73,3.34 C396.73,3.24 397.42,2.87 399.87,2.84 L400.87,3.17 C402.45,2.97 398.31,3.05 401.56,2.8 C404.68,2.8 403.66,3.17 401.87,3.28 L405.67,3.17 C405.89,3.27 405,3.32 404.77,3.44 C406.33,3.24 411.32,3.76 413.57,3.44 L413.78,3.54 C422.13,3.54 425.92,3.43 432.73,3.41 C432.86,3.13 435.52,3.19 437.55,2.96 C442.55,3.05 448.1,3.27 454.13,3.24 C458.36,3.1 455.37,3 457.27,2.83 C457.58,3.09 463.6,3.06 460.48,3.24 C467.71,3.24 469.72,3.18 478.87,2.97 C477.87,2.87 476.76,2.82 477.34,2.73 C478.524916,2.63534811 479.717294,2.712819 480.88,2.96 L480.44,2.96 C490.71,2.57 504.14,3.7 512.31,3.16 L511.85,3.16 L520.33,2.88 C524.23,2.88 517.99,3.07 520.88,3.23 C530.03,2.8 535.33,3.29 542.88,3 C548.71,3.75 563.57,2.94 571.44,3.42 L570.99,3.24 C572.324827,3.16591399 573.663619,3.21277173 574.99,3.38 C574.78,3.24 572.78,3.22 574.05,3.12 C591.28,2.9 609.61,3.37 627.27,3.52 C633.73,3.52 630.94,2.6 639.08,3.02 L636.77,3.35 C649.77,2.95 663.43,3.35 676.19,3.01 C675.529689,3.12582903 674.860387,3.18271968 674.19,3.18 C677.523372,3.36804913 680.866177,3.30453583 684.19,2.99 C686.19,2.99 684.65,3.17 685.88,3.27 C688.58,3.41 692.67,2.96 694.1,3.2 C693.688426,3.28027941 693.269103,3.31382528 692.85,3.3 C694.61,3.18 701.06,3.3 699.37,3.05 C704.16,3.18 708.53,2.92 712.37,3.05 C714.86,2.74 720.57,3.2 721.37,2.76 C721.03,3.21 729.77,3.12 732.8,2.91 C731.8,3.05 735.43,3.05 734.25,3.24 C737.71,3.24 740.87,3.15 740.25,2.91 C746.62,3.45 753.05,2.47 756.63,3.16 C766.9,2.91 776.4,2.74 785.63,2.63 C785.3,3.08 775.42,2.63 775.82,3.15 C784.58,2.96 789.64,2.57 798.32,2.68 C800.57,2.74 797.04,2.88 796.32,2.95 C805.07,2.76 813.25,2.95 821.03,2.74 C820.479931,2.8166868 819.925379,2.85677493 819.37,2.86 C820.91,2.86 822.94,2.92 822.77,2.72 L821.27,2.78 C818.82,2.48 827.37,2.16 827.64,2 C825.03,2.59 835.33,2.14 831.2,2.89 C832.2,2.89 833.48,2.75 833.2,2.62 C834.7,2.62 835.2,2.74 833.65,2.9 C839.15,2.79 837.19,2.57 842.18,2.57 C841.672891,2.69018267 841.158457,2.77703509 840.64,2.83 C843.722016,2.55739002 846.816657,2.45390149 849.91,2.52 C849.66,2.58 850.15,2.66 848.91,2.66 C856.14,2.66 861.23,2.14 869.16,2.32 C866.82,2.75 871.86,2.46 872.28,2.83 L876.55,2.72 L874.84,2.54 C878.58,2.54 881.84,2.27 885.09,2.39 L882.31,2.54 L889.31,2.47 L885.31,2.33 C889.09,2.14 884.9,1.86 889.88,1.96 C888.88,1.96 893.62,1.96 895.56,2.18 L895.56,2.18 C897.725704,2.0125686 899.898883,1.96249534 902.07,2.03 C902.79,2.15 901.49,2.44 901.96,2.52 C903.78,2.21 910.71,2.43 913.02,2.1 C912.25,2.18 912.21,2.37 912.46,2.41 L914,2.2 C915.73,2.28 916,2.32 915.7,2.48 C920.91,2.48 914.05,2.01 920.22,2.21 C919.74,2.21 919.97,2.27 918.96,2.31 C925.17,2.41 930.96,2.14 936.65,2.31 C938.33,2.69 931.65,2.4 933.59,2.72 C941.81,2.65 950.59,2.26 958.59,2.35 L957.11,2.35 C958.21,1.82 963.04,2.61 967.06,2.35 C966.06,2.35 965.77,2.64 966.06,2.59 C971.51,2.67 977.2,2.46 985.46,2.29 L984.46,2.43 C987.67,2.55 992.92,2.5 996.38,2.56 C997.38,2.42 999.38,2.44 998.19,2.25 C1008.88,3.02 1018.59,1.83 1028.08,2.47 C1026.95,2.47 1025.38,2.59 1026.28,2.59 L1034.36,2.46 C1033.45321,2.26014374 1032.52846,2.15292662 1031.6,2.14 C1033.36443,1.96410565 1035.13685,1.88065823 1036.91,1.89 C1033.28,2.04 1036.91,2.26 1038.51,2.39 C1038.25,2.32 1038.78,2.24 1038.65,2.17 C1042.87,2.58 1039.36,1.7 1045.12,1.98 L1044.81,2.1 C1046.97,2.04 1048.95,1.88 1051.28,1.91 C1052.28,2.18 1048.98,2.04 1048.84,2.26 C1052.11,2.26 1055.29,1.75 1058.25,2.02 C1056.86,2.1 1054.87,2.1 1053.48,2.17 C1055.47306,2.37715307 1057.47631,2.47063775 1059.48,2.45 L1059.24,2.45 L1064.77,2.59 L1063.36,2.51 C1067.45,1.81 1071.69,2.38 1077.19,1.92 C1071.84,2.35 1076.31,2.17 1075.9,2.47 C1077.31,2.55 1079.44,2.65 1078.84,2.73 C1081.44,2.48 1083.19,2.92 1086.84,2.56 C1087,2.66 1089.63,2.56 1089.04,2.81 C1092.43,2.73 1088.24,2.64 1088.52,2.52 C1093.74,2.18 1100.78,2.92 1108.29,2.46 C1114.76,2.27 1115.96,1.94 1121.96,1.77 C1123.96,1.93 1120.3,2.13 1120.3,2.13 C1123.57,2.27 1126.03,2.24 1129.11,2.13 C1128.49,2.22 1129.11,2.29 1130.11,2.4 C1132.58,2.4 1131.76,2.04 1135.02,2.19 C1134.20546,2.37060978 1133.38056,2.50085658 1132.55,2.58 C1135.46,2.49 1138.34,2.31 1141.36,2.22 C1142.16,2.39 1139.54,2.48 1138.48,2.59 C1141.87,2.51 1147.26,2.43 1148.31,2.16 L1146,2 C1147.24,2 1146.64,2.23 1145.72,2.28 C1144.26767,2.49187468 1142.78839,2.42741049 1141.36,2.09 L1143.51,2.03 C1141.3,1.46 1134.88,2.13 1130.51,2.09 L1132.31,1.67 L1127.87,2.02 C1126.93,1.91 1126.28,1.68 1128.42,1.62 C1125.32,1.42 1125.68,1.77 1123.01,1.54 C1122.72,1.54 1122.85,1.48 1123.12,1.47 L1120.12,1.6 C1120.71,1.51 1119.62,1.31 1121.48,1.37 C1116.04,1.13 1112.71,1.69 1110.66,1.37 L1111.11,1.37 C1103.57,1.51 1110.38,1.68 1104.72,2.04 L1101,1.2 L1100.26,1.51 C1099.48,1.51 1097.94,1.51 1098.26,1.35 C1095.36,1.56 1098.75,1.48 1097.07,1.68 C1093.32,1.4 1086.74,1.81 1085.9,1.33 C1084.56,1.56 1089.48,1.51 1085.48,1.67 C1084.34,1.15 1080.86,1.76 1077.48,1.52 C1078.53,1.25 1081.77,1.39 1078.35,1.15 C1076.29,1.61 1071.69,1.05 1068.8,1.15 C1068.66,1.51 1062.52,1.3 1057.68,1.43 C1057.99,1.31 1048.56,1.23 1044.06,1.1 L1044.19,1.04 C1043.32,1.41 1038.67,1.34 1035.28,1.42 C1035.41,1.2 1036.02,1.11 1037.85,1.01 L1034.67,1.01 C1033.406,1.16458113 1032.13339,1.23806481 1030.86,1.23 L1031.66,0.96 C1027.43,0.96 1023.13,1.29 1017.66,1.11 C1017.35,1.37 1021.99,1.82 1016.23,1.99 C1016.02,1.85 1015.8,1.61 1017.31,1.56 C1016.82,1.56 1015.55,1.68 1014.55,1.62 L1016.85,1.39 C1014.37,1.29 1015.55,1.59 1013.57,1.56 C1013.57,1.36 1012.1,1.42 1012.39,1.26 C1012.9,1.26 1014.12,1.34 1014.88,1.26 C1012.64,1.26 1009.94,1.11 1009.04,0.96 C1009.24,1.07 1009.04,1.23 1007.4,1.25 C1003.17,1.25 1005.95,1.01 1003.48,0.91 C1002.48,1.05 999.75,0.91 999.68,1.2 C999.023033,1.21538046 998.367026,1.14136932 997.73,0.98 C995.54,1.11 987.49,0.98 989.96,1.33 L990.52,1.33 L990.16,1.33 C982.98,1.63 975.24,1.17 968.11,1.33 L968.11,1.23 C963.85,1.34 958.64,1.3 955.6,1.51 C954.34,1.51 952.6,1.33 953.17,1.21 C949.92,1.29 949.55,1.4 944.85,1.21 C948.12,1.04 943.72,1.06 948.2,1.08 C944.962424,0.902742603 941.717576,0.902742603 938.48,1.08 C940.02,0.83 935.3,0.76 933.29,0.84 L936.29,1.02 L930.05,1.02 L931.13,0.69 C922.48,0.29 915.53,1.39 908.95,0.69 C906.66,0.92 913.65,0.85 911.6,1.12 C907.6,1.12 903.48,0.6 902.23,0.6 C896.78,0.42 897.15,1.09 891.44,0.96 C892.17,1.08 892.86,1.39 888.6,1.51 C884.6,1.51 883.71,1.01 886.22,0.92 C886.67758,0.87396305 887.139495,0.897564556 887.59,0.99 C888.88,0.99 890.59,0.89 888.99,0.77 L888.47,0.89 C886.47,0.77 881.02,0.78 882.3,0.59 C879.3,0.7 881.01,0.79 883.24,0.85 C878.13,0.68 875.24,0.85 870.01,0.73 C870.85,0.8 871.62,0.93 870.78,0.93 C863.07,0.79 867.39,1.16 862.16,1.21 C859.16,1.03 863.22,0.78 857.97,0.93 C854.76,0.81 857.29,0.62 858.57,0.52 C853.78,0.75 849.57,0.37 846.88,0.33 L849.4,0.23 C847.89,0.29 846.66,0.29 845.4,0.29 L846.84,0.53 C845.934292,0.565306931 845.027248,0.518448569 844.13,0.39 C842.6,0.55 845.3,0.78 842.27,1 C840.27,0.88 836.27,1.13 835.57,0.82 C841.78,0.92 834.88,0.5 840.14,0.45 L836.4,0.45 C836.18,0.45 836.61,0.38 837.02,0.37 C831.08,0.09 834.29,0.73 828.13,0.72 C828.91,0.54 826.7,0.38 825.7,0.42 C828.18,0.42 826.89,0.72 824.61,0.85 C820.61,0.71 820.32,0.95 818.25,0.94 L820.61,1 C818.77216,1.17510663 816.925827,1.24522055 815.08,1.21 C814.84,1.07 817.58,1.11 816.6,1.05 C813.54,1.36 809.69,0.73 805.43,0.94 C803.43,0.82 805.24,0.61 803.5,0.53 C798.72,0.76 798.33,0.29 793.3,0.53 C794.75,0.77 795,0.71 791.46,0.94 L799.72,0.77 L794.42,1.12 C796.91,1.12 799.68,0.97 801.17,1.01 C798.65,1.21 798.91,1.15 800.1,1.34 C796.69,0.98 793.34,1.55 789.4,1.34 L789.52,0.75 C783.59,0.49 778.99,1.06 771.3,0.91 L773.77,1.01 C772.77,1.25 769.02,1.01 766.53,1.14 C766.76,0.94 765.2,0.87 764.14,0.75 C764.27,0.9 758.51,0.75 757.81,1.13 L754.38,0.87 C748.17,0.77 747.29,1.44 741.32,1.37 C743.12,1.15 740.4,1.02 744.41,0.86 C743.136182,0.78217007 741.858002,0.815630283 740.59,0.96 C739.43,0.84 735.06,1.23 733.23,1.04 C732.126541,1.25273017 731.003463,1.34659942 729.88,1.32 C729.64,1.32 729.88,1.22 729.88,1.22 C729.88,1.22 726.38,1.35 728.33,1.57 C722.19,0.96 711.16,1.62 705.82,1.09 C701.47,1.16 696.23,1.22 692.28,1.24 C692.53,1.18 692.28,1.14 693.04,1.16 C687.59,0.98 689.69,1.73 683.49,1.53 C680.32,1.21 686.78,1.36 684.81,1.24 C683.95,0.59 677.33,1.33 673.15,0.95 L674.15,0.95 C670.96,0.73 666.37,1.2 661.15,1.15 C661.15,1.15 661.4,1.09 661.15,1.05 C657.59,1.38 650.84,1.5 645.83,1.59 C647.39,1.34 648.11,1.45 647.16,1.2 C644.91,1.2 647.82,1.61 643.33,1.69 C641.87,1.55 638.64,1.43 638.21,1.16 L642.44,1.16 C640.27,0.8 636.96,1.16 634.73,1.16 L635.01,1 C628.53,1.05 628.44,1.45 621.47,1.42 L622.19,1.54 C618.38,1.93 619,1.32 615.19,1.61 L614,1.16 C611.49,1.26 605.2,1.55 600.69,1.62 C603.24,1.33 608.52,1.17 611.78,1 C609.29,1 603.31,1 602.02,1.23 C603.02,1.23 604.29,1.09 605.28,1.15 C602.22,1.46 598.2,1.62 593.28,1.61 C594.16,0.84 580.34,1.42 576.74,0.83 C567.96,1.12 559.32,0.72 549.09,0.77 C552.72,1.36 546.09,0.77 546.73,1.4 L543.23,1.4 L536,1 C534.29,0.82 538.27,0.86 538,0.73 C532.78,0.73 535.81,0.47 532.36,0.31 C533.07,0.53 530.55,0.62 527.57,0.54 L531.76,0.82 C524.47,1.15 525.46,0.31 518.11,0.63 L520.43,0.44 C516.66,0.56 506.52,0.44 502.82,0.93 C502.15,0.86 501.27,0.69 502.93,0.65 C493.93,0.58 482.87,1.18 475.86,0.88 L476.54,0.73 C474.877512,0.874701405 473.207761,0.91811495 471.54,0.86 C471.65,0.8 472.22,0.71 471.44,0.7 C470.66,0.69 466.97,0.96 464.75,0.88 L466.65,0.71 C457.86,0.52 453.16,1.13 445.79,1.23 C445.79,0.79 438.89,0.65 435.44,0.58 L435.56,0.52 C425.32,0.47 418.17,0.89 408.69,1.07 C402.81,0.59 388.76,0.88 379.3,0.61 C380.75,0.69 379.06,0.95 377.38,1 C375.16,0.91 371.24,1.31 371.6,0.9 L372.39,0.9 C370.72,0.5 366.16,0.61 362.59,0.6 L362,1.13 C352.68,0.37 337.59,1.42 332.51,0.74 C330.26,0.87 327.51,0.87 325.25,1.01 L325.37,0.73 C319.14,0.66 316.03,0.63 308.37,0.73 L309.94,0.53 C305.6,0.53 304.46,1.35 300.45,1.37 L299.24,0.95 C291.66,0.95 284,0.59 276.51,0.95 C276.63,0.89 276.86,0.77 278.08,0.75 C274.51,0.75 264.29,0.47 265.58,1.05 C265.49,0.67 257.76,1.05 253.67,1.18 L254.31,0.9 C251.527817,1.26214999 248.725633,1.4491849 245.92,1.46 C244.78,1.46 244.92,1.24 246.44,1.31 C242.63,1.17 243.44,1.58 238.86,1.43 L240.58,1.25 C238.655522,1.17774402 236.728396,1.27142374 234.82,1.53 C232.149081,1.64923812 229.472862,1.54218935 226.82,1.21 C225.168338,1.48374404 223.492235,1.58095799 221.82,1.5 C221.51,1.4 222.35,1.35 222.82,1.32 C216.27,1.13 213.08,1.65 208.57,1.38 C208.334965,1.2604039 208.07359,1.20193858 207.81,1.21 L216.81,1.21 C216.81,0.95 212.61,0.91 215.95,0.55 C212.57,0.74 206.8,1.17 202.71,1.05 C202.528324,1.03111092 202.347982,1.00105406 202.17,0.96 L202.59,0.96 L200,0.96 C198.69,0.96 197.86,0.89 196.61,0.88 C194.306941,0.720808844 191.997194,0.680755419 189.69,0.76 C189.86,1.04 187.12,1 189.69,1.23 C190.28541,1.17522602 190.88459,1.17522602 191.48,1.23 L192.37,1.23 L192.23,1.23 L197.44,1.23 C195.546239,1.42304014 193.639799,1.45983108 191.74,1.34 C190.66,1.52 189.48,1.71 188.81,1.79 C185.94,1.4 180.41,1.19 179.64,0.95 C173.24,1.11 164.56,1.06 160.54,1.59 C159.610394,1.64854387 158.67722,1.57106015 157.77,1.36 C158.82,1.31 160.07,1.36 160.64,1.24 C157,1.38 149.86,1.3 148.99,1.67 C144.4,1.51 151.57,1.33 145.27,1.39 L146.12,1.28 C133.72,0.7 125.96,2.23 112.22,1.48 C112.762583,1.48055494 113.304272,1.52402381 113.84,1.61 C98.17,1.28 81.55,1.94 66.08,1.41 C63.5591482,1.33062919 61.0358594,1.43423442 58.53,1.72 L57.53,1.42 L52.94,1.77 C46.44,2.03 41.68,1.03 33.44,1.52 L34.5,1.72 C31.5,1.72 25.13,1.84 25.63,1.61 C24.9289334,1.74849696 24.2116038,1.78554215 23.5,1.72 L23.41,1.56 L16.15,1.83 C10.52,1.72 17.03,1.2 8.81,1.17 C5.76,1.23 0.11,1.63 1.26,1.74 C2.34648114,1.69826018 3.43407838,1.7855365 4.5,2 L1.71,2.08 C1.2,2.55 -0.94,3.02 5.91,3.35 L10.69,3.06 L12.23,3.29 L8.23,3.29 C10.0125313,3.43211048 11.8048165,3.39525975 13.58,3.18 C14.2352029,3.33795648 14.9060755,3.42181555 15.58,3.43 L20.22,3 C20.79,3.18 18.12,3.36 21.22,3.46 C23.42,3.25 19.11,3.05 22.75,2.92 C24.166378,3.19208913 25.614481,3.25944275 27.05,3.12 C27.43,3.24 26.86,3.32 25.8,3.37 C28.19,3.23 32.12,3.31 33.35,3.06 C35.73,3.32 41.41,2.99 41.18,3.43 C41.93,3.32 45.39,3.08 47.58,3.06 C43.58,3.59 55.79,3.06 54.73,3.65 C57.73,3.17 65.45,3.43 70.73,3.17 C70.2898875,3.23644628 69.8450519,3.26654794 69.4,3.26 C72.4,3.26 73.22,3.44 75.12,3.53 C75.5,3.14 80.12,3.05 82.59,2.8 C86.21,3.18 80.39,3.26 81.53,3.62 C81.35,3.3 87.83,3.3 86.6,3.04 C87.884994,3.05620806 89.1649712,3.20363999 90.42,3.48 C90.91,2.99 93,3.4 95.3,3.09 C99.3,3.33 96.3,3.55 100.74,3.4 C102.84,3.55 98.92,3.72 98.92,3.72 Z M203.74,2.83 L203.74,2.83 L201.58,2.83 L203.74,2.83 Z M212.55,2.83 L208.73,2.83 C208.42,2.73 208.73,2.63 209.64,2.64 C210.601028,2.77113187 211.570078,2.83462133 212.54,2.83 L212.55,2.83 Z M193.92,0.89 C194.615184,0.837553008 195.314225,0.874521512 196,1 L193.56,1 L193.4,1 C193.564904,0.942766354 193.736165,0.905827789 193.91,0.89 L193.92,0.89 Z" id="Shape"></path>
            <polygon id="Shape" points="191.4 1.25 190.83 1.25 191.66 1.31 192.15 1.22"></polygon>
            <polygon id="Shape" points="989.89 1.35 989.7 1.35 990.09 1.35"></polygon>
            <polygon id="Shape" points="334.17 3.31 334.16 3.24 333.39 3.3"></polygon>
            <path d="M1038.4,2.29 C1038.6109,2.33183468 1038.82504,2.35525618 1039.04,2.36 C1038.82845,2.32254637 1038.61465,2.29916174 1038.4,2.29 L1038.4,2.29 Z" id="Shape"></path>
            <path d="M1059.36,2.35 L1062.36,2.45 C1061,2.39 1060.11,2.36 1059.36,2.35 Z" id="Shape"></path>
            <path d="M1075.47,2.48 C1075.58362,2.46181065 1075.69244,2.42100506 1075.79,2.36 L1075.79,2.36 L1075.47,2.48 Z" id="Shape"></path>
            <path d="M819.29,2.91 L818.67,2.91 C817.21,3 818.2,3 819.29,2.91 Z" id="Shape"></path>
            <path d="M895.52,2.23 C894.71,2.28 893.91,2.33 893.07,2.36 C893.887751,2.46669504 894.718132,2.42263403 895.52,2.23 L895.52,2.23 Z" id="Shape"></path>
            <path d="M889.53,2.36 C890.89,2.42 892.02,2.36 893.07,2.36 C892,2.34 890.65,2.31 889.53,2.36 Z" id="Shape"></path>
            <path d="M1145.31,2.58 L1146.09,2.58 L1146.18,2.58 L1145.31,2.58 Z" id="Shape"></path>
            <path d="M1146.18,2.54 L1147.04,2.54 C1146.75375,2.51815121 1146.46625,2.51815121 1146.18,2.54 L1146.18,2.54 Z" id="Shape"></path>
            <path d="M1148.85,2.44 L1147.04,2.51 C1147.64423,2.53147599 1148.24923,2.50807839 1148.85,2.44 L1148.85,2.44 Z" id="Shape"></path>
            <path d="M1124,2.46 L1123.76,2.56 C1123.87,2.54 1124,2.5 1124,2.46 Z" id="Shape"></path>
            <path d="M1117.5,2.49 C1119.05,2.49 1121.38,2.71 1123.5,2.64 L1123.7,2.56 C1122.72,2.71 1119,2.32 1117.5,2.49 Z" id="Shape"></path>
            <path d="M1090.44,1.24 L1095.87,1.32 C1094.92,1.21 1093.67,1.07 1096.14,1.04 C1089.3,0.72 1097.56,1.28 1090.44,1.24 Z" id="Shape"></path>
            <path d="M1073.6,1.09 C1076.52,1.04 1073.6,0.93 1073.72,0.87 C1071.87,1 1071.42,1 1073.6,1.09 Z" id="Shape"></path>
            <path d="M951.89,1.14 L952.18,0.88 C949.93,0.92 952.16,1 951.89,1.14 Z" id="Shape"></path>
            <polygon id="Shape" points="928.63 2.47 930.81 2.63 931.86 2.39"></polygon>
            <polygon id="Shape" points="914.88 0.65 915.86 0.62 912.11 0.71"></polygon>
            <path d="M710.47,0.83 L711.15,1.14 C712.67,1.08 713,0.73 710.47,0.83 Z" id="Shape"></path>
            <path d="M622.23,1.18 C620.570717,0.981751857 618.895883,0.948255181 617.23,1.08 C619.24,1.1 621.22,1.22 622.23,1.18 Z" id="Shape"></path>
            <polygon id="Shape" points="357.58 0.78 359.35 0.67 356.01 0.76"></polygon>
        </g>
    </g>
</svg>