<svg id="Layer_1" data-name="Layer 1" xmlns="http://www.w3.org/2000/svg" viewBox="0 0 1200 50"><defs><style>.cls-1{fill:#fff;}</style></defs><title>hr</title><path class="cls-1" d="M1179.06,27.36c.61-.09.27-.28-1.42-.24l-1.2.33Z"/><path class="cls-1" d="M1167.7,26.75c-2,.16-4.28.44-3,.75,2-.32,2.44-.19,4.56-.57,1.69,0,2.95.1,2.66.23.6-.09,2.62.07,3.53-.14a43.78,43.78,0,0,0-7.89-.05C1167,26.9,1167.56,26.81,1167.7,26.75Z"/><path class="cls-1" d="M1002.64,26.3l1.06,0C1003.41,26.32,1003,26.31,1002.64,26.3Z"/><path class="cls-1" d="M900.37,26.16a5,5,0,0,0,1.14-.07A4.62,4.62,0,0,0,900.37,26.16Z"/><path class="cls-1" d="M882.91,25.8l1,0A6.71,6.71,0,0,0,882.91,25.8Z"/><path class="cls-1" d="M1002.64,26.3l-2.73-.1A14.55,14.55,0,0,0,1002.64,26.3Z"/><path class="cls-1" d="M1144.94,27.56c.57,0,1,0,1.48-.09l-1.39,0Z"/><path class="cls-1" d="M1047.72,26h.83c.24,0,.47-.08.69-.13Z"/><path class="cls-1" d="M1082.32,25.95a2.44,2.44,0,0,0-1.35.39,8.08,8.08,0,0,1,1.71-.19C1082.69,26.09,1082.59,26,1082.32,25.95Z"/><path class="cls-1" d="M1137.19,26.42l1,0Z"/><path class="cls-1" d="M1023,26a.86.86,0,0,0-.32-.1S1022.77,25.93,1023,26Z"/><path class="cls-1" d="M55.23,28.47s0,0,0,0C55,28.45,55,28.47,55.23,28.47Z"/><path class="cls-1" d="M15.12,27.09l.56,0c.06-.05.12-.11.12-.16Z"/><path class="cls-1" d="M851,25.46h.14C851.94,25.43,851.46,25.44,851,25.46Z"/><path class="cls-1" d="M557.59,25.78c3.32.25-5.41.32-.4.6C556.72,26.28,561.73,25.94,557.59,25.78Z"/><path class="cls-1" d="M1144,27.52h-1.42C1143.27,27.53,1143.71,27.53,1144,27.52Z"/><path class="cls-1" d="M557.19,26.38h0l.52,0Z"/><path class="cls-1" d="M777.32,25.66a4.89,4.89,0,0,0,.75.12A2.53,2.53,0,0,0,777.32,25.66Z"/><path class="cls-1" d="M832.18,26l-1.36,0C831.36,26,831.79,26,832.18,26Z"/><path class="cls-1" d="M748.84,26.06c-.74,0-1-.06-2,0l.31,0A10.56,10.56,0,0,1,748.84,26.06Z"/><path class="cls-1" d="M719.2,26.08l.55.06.94,0Z"/><path class="cls-1" d="M145.32,28.3a9.26,9.26,0,0,1-1.37-.25C144.41,28.25,140.05,28.32,145.32,28.3Z"/><path class="cls-1" d="M1144.93,27.4a2.69,2.69,0,0,1-.88.12l1,0C1145.12,27.46,1145.14,27.42,1144.93,27.4Z"/><path class="cls-1" d="M747.64,28.28l-4.71,0C744.24,28.27,746,28.28,747.64,28.28Z"/><path class="cls-1" d="M358,28.17l-1.08,0A9.08,9.08,0,0,0,358,28.17Z"/><path class="cls-1" d="M729,28.29c-.84-.1-1.73-.16-2.65-.19a5.34,5.34,0,0,0-.55.07Z"/><path class="cls-1" d="M143.94,28h0Z"/><path class="cls-1" d="M112.92,28.72c4.49,0,2.11-.36,3.06-.57,5.36-.11,2.48.27,4.3.46,3.34-.1,5.91-.44,8.4-.43.19.06.67.08.1.16,3.54-.3,10.5,0,14.62-.39a2.65,2.65,0,0,1,.54.09c-.67-.18-.77-.37-.63-.51a25.75,25.75,0,0,1,4.49,0,8.32,8.32,0,0,0-1.91.17L148,27.6c1.9.35-2.88.12-2.88.38,4.11-.11,8.9-.4,12.05-.31.66.34-7.37.12-3.16.42L149.13,28c3.72.53-3,0,.46.54,6.41.1,7.17-.18,13.57-.08,1.44-.19-.48-.28,1-.47,9.09-.34,7.16.85,13.84.4a24.56,24.56,0,0,1,7.16-.43l-1.62.38c6.21,0,3.54-.55,10-.3-1.16.15-4.88.13-3.94.17,4.21.3,3-.22,6.22-.22l.67.34c6.61-.06,13.89-.3,21.22-.37-.41.1-1.66.21.05.31,9.23-.17,19.71,0,28.62.23l3.4-.29c.79,0,1.47.13.61.19,3.47.11.18-.19,1.85-.3,2,0,2.61.17,1.36.26,6.13-.25,17.45-.54,23.9-.23l-1.26.09c5,.12,5.67-.6,10.33-.33l-.89.05c10.91.12,23-.15,31.29.29,1.58-.42,10.8.18,11.5-.41,6.23.29,4.45.4,13.22.59,2.34,0,3.49-.37,6.39-.43l.07.31,3.93-.32,2.09.37,2.72-.08a6.27,6.27,0,0,1-2.14-.23,74.85,74.85,0,0,1,10.45.37l10-.26a25.52,25.52,0,0,1-3.23.25c5.36-.32,1,.32,5.88,0-.66-.07.36-.18.47-.25,2.45.19,8,.18,12.14.1l-.79.21c7.45.05,15.7-.11,24.06-.11-3-.1-2.31-.47.14-.5l1,.33c1.58-.2-2.56-.12.69-.37,3.12,0,2.1.37.31.48l3.8-.11c.22.1-.67.15-.9.27,1.56-.2,6.55.32,8.8,0l.21.1c8.35,0,12.14-.11,18.95-.13.13-.28,2.79-.22,4.82-.45,5,.09,10.55.31,16.58.28,4.23-.14,1.24-.24,3.14-.41.31.26,6.33.23,3.21.41,7.23,0,9.24-.06,18.39-.27-1-.1-2.11-.15-1.53-.24a12.31,12.31,0,0,1,3.54.23l-.44,0c10.27-.39,23.7.74,31.87.2l-.46,0,8.48-.28c3.9,0-2.34.19.55.35,9.15-.43,14.45.06,22-.23,5.83.75,20.69-.06,28.56.42l-.45-.18a22.16,22.16,0,0,1,4,.14c-.21-.14-2.21-.16-.94-.26,17.23-.22,35.56.25,53.22.4,6.46,0,3.67-.92,11.81-.5l-2.31.33c13-.4,26.66,0,39.42-.34a11.31,11.31,0,0,1-2,.17,66.43,66.43,0,0,0,10-.19c2,0,.46.18,1.69.28,2.7.14,6.79-.31,8.22-.07a5.57,5.57,0,0,1-1.25.1c1.76-.12,8.21,0,6.52-.25,4.79.13,9.16-.13,13,0,2.49-.31,8.2.15,9-.29-.34.45,8.4.36,11.43.15-1,.14,2.63.14,1.45.33,3.46,0,6.62-.09,6-.33,6.37.54,12.8-.44,16.38.25,10.27-.25,19.77-.42,29-.53-.33.45-10.21,0-9.81.52,8.76-.19,13.82-.58,22.5-.47,2.25.06-1.28.2-2,.27,8.75-.19,16.93,0,24.71-.21a12.55,12.55,0,0,1-1.66.12c1.54,0,3.57.06,3.4-.14l-1.5.06c-2.45-.3,6.1-.62,6.37-.78-2.61.59,7.69.14,3.56.89,1,0,2.28-.14,2-.27,1.5,0,2,.12.45.28,5.5-.11,3.54-.33,8.53-.33a11.94,11.94,0,0,1-1.54.26,84.68,84.68,0,0,1,9.27-.31c-.25.06.24.14-1,.14,7.23,0,12.32-.52,20.25-.34-2.34.43,2.7.14,3.12.51l4.27-.11-1.71-.18c3.74,0,7-.27,10.25-.15l-2.78.15,7-.07-4-.14c3.78-.19-.41-.47,4.57-.37-1,0,3.74,0,5.68.22h0a60.19,60.19,0,0,1,6.51-.15c.72.12-.58.41-.11.49,1.82-.31,8.75-.09,11.06-.42-.77.08-.81.27-.56.31L928,27.2c1.73.08,2,.12,1.7.28,5.21,0-1.65-.47,4.52-.27-.48,0-.25.06-1.26.1,6.21.1,12-.17,17.69,0,1.68.38-5,.09-3.06.41,8.22-.07,17-.46,25-.37l-1.48,0c1.1-.53,5.93.26,9.95,0-1,0-1.29.29-1,.24,5.45.08,11.14-.13,19.4-.3l-1,.14c3.21.12,8.46.07,11.92.13,1-.14,3-.12,1.81-.31,10.69.77,20.4-.42,29.89.22-1.13,0-2.7.12-1.8.12l8.08-.13a13.71,13.71,0,0,0-2.76-.32,50.83,50.83,0,0,1,5.31-.25c-3.63.15,0,.37,1.6.5-.26-.07.27-.15.14-.22,4.22.41.71-.47,6.47-.19l-.31.12c2.16-.06,4.14-.22,6.47-.19,1,.27-2.3.13-2.44.35,3.27,0,6.45-.51,9.41-.24-1.39.08-3.38.08-4.77.15a52.78,52.78,0,0,0,6,.28h-.24l5.53.14-1.41-.08c4.09-.7,8.33-.13,13.83-.59-5.35.43-.88.25-1.29.55,1.41.08,3.54.18,2.94.26,2.6-.25,4.35.19,8-.17.16.1,2.79,0,2.2.25,3.39-.08-.8-.17-.52-.29,5.22-.34,12.26.4,19.77-.06,6.47-.19,7.67-.52,13.67-.69,2,.16-1.66.36-1.66.36,3.27.14,5.73.11,8.81,0-.62.09,0,.16,1,.27,2.47,0,1.65-.36,4.91-.21a20.31,20.31,0,0,1-2.47.39c2.91-.09,5.79-.27,8.81-.36.8.17-1.82.26-2.88.37,3.39-.08,8.78-.16,9.83-.43L1160,27c1.24,0,.64.23-.28.28a11.65,11.65,0,0,1-4.36-.19l2.15-.06c-2.21-.57-8.63.1-13,.06l1.8-.42-4.44.35c-.94-.11-1.59-.34.55-.4-3.1-.2-2.74.15-5.41-.08-.29,0-.16-.06.11-.07l-3,.13c.59-.09-.5-.29,1.36-.23-5.44-.24-8.77.32-10.82,0l.45,0c-7.54.14-.73.31-6.39.67L1115,26.2l-.74.31c-.78,0-2.32,0-2-.16-2.9.21.49.13-1.19.33-3.75-.28-10.33.13-11.17-.35-1.34.23,3.58.18-.42.34-1.14-.52-4.62.09-8-.15,1.05-.27,4.29-.13.87-.37-2.06.46-6.66-.1-9.55,0-.14.36-6.28.15-11.12.28.31-.12-9.12-.2-13.62-.33l.13-.06c-.87.37-5.52.3-8.91.38.13-.22.74-.31,2.57-.41h-3.18a29.83,29.83,0,0,1-3.81.22l.8-.27c-4.23,0-8.53.33-14,.15-.31.26,4.33.71-1.43.88-.21-.14-.43-.38,1.08-.43-.49,0-1.76.12-2.76.06l2.3-.23c-2.48-.1-1.3.2-3.28.17,0-.2-1.47-.14-1.18-.3.51,0,1.73.08,2.49,0-2.24,0-4.94-.15-5.84-.3.2.11,0,.27-1.64.29-4.23,0-1.45-.24-3.92-.34-1,.14-3.73,0-3.8.29a7.25,7.25,0,0,1-1.95-.22c-2.19.13-10.24,0-7.77.35l.56,0h-.36c-7.18.3-14.92-.16-22.05,0v-.1c-4.26.11-9.47.07-12.51.28-1.26,0-3-.18-2.43-.3-3.25.08-3.62.19-8.32,0,3.27-.17-1.13-.15,3.35-.13a88.9,88.9,0,0,0-9.72,0c1.54-.25-3.18-.32-5.19-.24l3,.18c-2.26,0-4.23,0-6.24,0l1.08-.33c-8.65-.4-15.6.7-22.18,0-2.29.23,4.7.16,2.65.43-4,0-8.12-.52-9.37-.52-5.45-.18-5.08.49-10.79.36.73.12,1.42.43-2.84.55-4,0-4.89-.5-2.38-.59a4.55,4.55,0,0,1,1.37.07c1.29,0,3-.1,1.4-.22l-.52.12c-2-.12-7.45-.11-6.17-.3-3,.11-1.29.2.94.26-5.11-.17-8,0-13.23-.12.84.07,1.61.2.77.2-7.71-.14-3.39.23-8.62.28-3-.18,1.06-.43-4.19-.28-3.21-.12-.68-.31.6-.41-4.79.23-9-.15-11.69-.19l2.52-.1c-1.51.06-2.74.06-4,.06l1.44.24a15,15,0,0,1-2.71-.14c-1.53.16,1.17.39-1.86.61-2-.12-6,.13-6.7-.18,6.21.1-.69-.32,4.57-.37-1,0-2.25,0-3.74,0-.22,0,.21-.07.62-.08-5.94-.28-2.73.36-8.89.35.78-.18-1.43-.34-2.43-.3,2.48,0,1.19.3-1.09.43-4-.14-4.29.1-6.36.09l2.36.06a48.54,48.54,0,0,1-5.53.21c-.24-.14,2.5-.1,1.52-.16-3.06.31-6.91-.32-11.17-.11-2-.12-.19-.33-1.93-.41-4.78.23-5.17-.24-10.2,0,1.45.24,1.7.18-1.84.41l8.26-.17-5.3.35c2.49,0,5.26-.15,6.75-.11-2.52.2-2.26.14-1.07.33-3.41-.36-6.76.21-10.7,0l.12-.59c-5.93-.26-10.53.31-18.22.16l2.47.1c-1,.24-4.75,0-7.24.13.23-.2-1.33-.27-2.39-.39.13.15-5.63,0-6.33.38l-3.43-.26c-6.21-.1-7.09.57-13.06.5,1.8-.22-.92-.35,3.09-.51a21.94,21.94,0,0,0-3.82.1c-1.16-.12-5.53.27-7.36.08a15.73,15.73,0,0,1-3.35.28c-.24,0,0-.1,0-.1s-3.5.13-1.55.35c-6.14-.61-17.17.05-22.51-.48-4.35.07-9.59.13-13.54.15.25-.06,0-.1.76-.08-5.45-.18-3.35.57-9.55.37-3.17-.32,3.29-.17,1.32-.29-.86-.65-7.48.09-11.66-.29l1,0c-3.19-.22-7.78.25-13,.2,0,0,.25-.06,0-.1-3.56.33-10.31.45-15.32.54,1.56-.25,2.28-.14,1.33-.39-2.25,0,.66.41-3.83.49-1.46-.14-4.69-.26-5.12-.53l4.23,0c-2.17-.36-5.48,0-7.71,0l.28-.16c-6.48.05-6.57.45-13.54.42l.72.12c-3.81.39-3.19-.22-7,.07L628,26.16c-2.51.1-8.8.39-13.31.46,2.55-.29,7.83-.45,11.09-.62-2.49,0-8.47,0-9.76.23,1,0,2.27-.14,3.26-.08-3.06.31-7.08.47-12,.46.88-.77-12.94-.19-16.54-.78-8.78.29-17.42-.11-27.65-.06,3.63.59-3,0-2.36.63-2.38,0-3.29,0-3.5,0L550,26c-1.71-.18,2.27-.14,2-.27-5.22,0-2.19-.26-5.64-.42.71.22-1.81.31-4.79.23l4.19.28c-7.29.33-6.3-.51-13.65-.19l2.32-.19c-3.77.12-13.91,0-17.61.49-.67-.07-1.55-.24.11-.28-9-.07-20.06.53-27.07.23l.68-.15a41.14,41.14,0,0,1-5,.13c.11-.06.68-.15-.1-.16s-4.47.26-6.69.18l1.9-.17c-8.79-.19-13.49.42-20.86.52,0-.44-6.9-.58-10.35-.65l.12-.06c-10.24-.05-17.39.37-26.87.55-5.88-.48-19.93-.19-29.39-.46,1.45.08-.24.34-1.92.39-2.22-.09-6.14.31-5.78-.1h.79c-1.67-.4-6.23-.29-9.8-.3l-.59.53c-9.32-.76-24.41.29-29.49-.39-2.25.13-5,.13-7.26.27l.12-.28c-6.23-.07-9.34-.1-17,0l1.57-.2c-4.34,0-5.48.82-9.49.84l-1.21-.42c-7.58,0-15.24-.36-22.73,0,.12-.06.35-.18,1.57-.2-3.57,0-13.79-.28-12.5.3-.09-.38-7.82,0-11.91.13l.64-.28a67,67,0,0,1-8.39.56c-1.14,0-1-.22.52-.15-3.81-.14-3,.27-7.58.12l1.72-.18a33.53,33.53,0,0,0-5.76.28,47.38,47.38,0,0,1-8-.32,23.6,23.6,0,0,1-5,.29c-.31-.1.53-.15,1-.18-6.55-.19-9.74.33-14.25.06a1.57,1.57,0,0,0-.76-.17c5.2,0,9.4,0,9,0,0-.26-4.2-.3-.86-.66-3.38.19-9.15.62-13.24.5a4.45,4.45,0,0,1-.54-.09l.42,0c-.95,0-1.79,0-2.59,0-1.31,0-2.14-.07-3.39-.08a67,67,0,0,0-6.92-.12c.17.28-2.57.24,0,.47a9.77,9.77,0,0,1,1.79,0l.89,0-.14,0,5.21,0a34.68,34.68,0,0,1-5.7.11c-1.08.18-2.26.37-2.93.45-2.87-.39-8.4-.6-9.17-.84-6.4.16-15.08.11-19.1.64a9.57,9.57,0,0,1-2.77-.23c1.05-.05,2.3,0,2.87-.12-3.64.14-10.78.06-11.65.43-4.59-.16,2.58-.34-3.72-.28l.85-.11c-12.4-.58-20.16.95-33.9.2a10.29,10.29,0,0,1,1.62.13c-15.67-.33-32.29.33-47.76-.2a52.15,52.15,0,0,0-7.55.31l-1-.3-4.59.35c-6.5.26-11.26-.74-19.5-.25l1.06.2c-3,0-9.37.12-8.87-.11a7.46,7.46,0,0,1-2.13.11l-.09-.16-7.26.27c-5.63-.11.88-.63-7.34-.66-3.05.06-8.7.46-7.55.57a13.75,13.75,0,0,1,3.24.26l-2.79.08c-.51.47-2.65.94,4.2,1.27l4.78-.29,1.54.23-4,0a26.77,26.77,0,0,0,5.35-.11,9,9,0,0,0,2,.25L34.22,28c.57.18-2.1.36,1,.46,2.2-.21-2.11-.41,1.53-.54a15.07,15.07,0,0,0,4.3.2c.38.12-.19.2-1.25.25,2.39-.14,6.32-.06,7.55-.31,2.38.26,8.06-.07,7.83.37.75-.11,4.21-.35,6.4-.37-4,.53,8.21,0,7.15.59,3-.48,10.72-.22,16-.48a8.11,8.11,0,0,1-1.33.09c3,0,3.82.18,5.72.27.38-.39,5-.48,7.47-.73,3.62.38-2.2.46-1.06.82-.18-.32,6.3-.32,5.07-.58a18.87,18.87,0,0,1,3.82.44c.49-.49,2.58-.08,4.88-.39,4,.24,1,.46,5.44.31C116.84,28.55,112.92,28.72,112.92,28.72Zm104.82-.89h0l-2.16,0Zm8.81,0h-3.82c-.31-.1,0-.2.91-.19A20.72,20.72,0,0,0,226.54,27.83Zm-18.63-1.94A8.15,8.15,0,0,1,210,26l-2.44,0-.16,0A2.15,2.15,0,0,1,207.91,25.89Z"/><path class="cls-1" d="M205.4,26.25l-.57,0,.83.06.49-.09Z"/><path class="cls-1" d="M1003.89,26.35h-.19l.39,0Z"/><polygon class="cls-1" points="348.17 28.31 348.16 28.24 347.39 28.3 348.17 28.31"/><path class="cls-1" d="M1052.4,27.29a3.71,3.71,0,0,0,.64.07A4.86,4.86,0,0,0,1052.4,27.29Z"/><path class="cls-1" d="M1073.36,27.35l3,.1C1075,27.39,1074.11,27.36,1073.36,27.35Z"/><path class="cls-1" d="M1089.47,27.48a.86.86,0,0,0,.32-.12h0Z"/><path class="cls-1" d="M833.29,27.91h-.62C831.21,28,832.2,28,833.29,27.91Z"/><path class="cls-1" d="M909.52,27.23c-.81.05-1.61.1-2.45.13A6.75,6.75,0,0,0,909.52,27.23Z"/><path class="cls-1" d="M748.15,28.29h0Z"/><path class="cls-1" d="M903.53,27.36c1.36.06,2.49,0,3.54,0C906,27.34,904.65,27.31,903.53,27.36Z"/><path class="cls-1" d="M1159.31,27.58h.78s0,0,.09,0Z"/><path class="cls-1" d="M1160.18,27.54l.86,0A5.65,5.65,0,0,0,1160.18,27.54Z"/><path class="cls-1" d="M1162.85,27.44l-1.81.07A12.22,12.22,0,0,0,1162.85,27.44Z"/><path class="cls-1" d="M1138,27.46l-.24.1C1137.87,27.54,1138,27.5,1138,27.46Z"/><path class="cls-1" d="M1131.5,27.49c1.55,0,3.88.22,6,.15l.2-.08C1136.72,27.71,1133,27.32,1131.5,27.49Z"/><path class="cls-1" d="M1104.44,26.24l5.43.08c-.95-.11-2.2-.25.27-.28C1103.3,25.72,1111.56,26.28,1104.44,26.24Z"/><path class="cls-1" d="M1087.6,26.09c2.92-.05,0-.16.12-.22C1085.87,26,1085.42,26,1087.6,26.09Z"/><path class="cls-1" d="M965.89,26.14l.29-.26C963.93,25.92,966.16,26,965.89,26.14Z"/><polygon class="cls-1" points="942.63 27.47 944.81 27.63 945.86 27.39 942.63 27.47"/><polygon class="cls-1" points="928.88 25.65 929.86 25.62 926.11 25.71 928.88 25.65"/><path class="cls-1" d="M724.47,25.83l.68.31C726.67,26.08,727,25.73,724.47,25.83Z"/><path class="cls-1" d="M636.23,26.18a25.32,25.32,0,0,0-5-.1C633.24,26.1,635.22,26.22,636.23,26.18Z"/><polygon class="cls-1" points="371.58 25.78 373.35 25.67 370.01 25.76 371.58 25.78"/></svg>