<?xml version="1.0" encoding="UTF-8" standalone="no"?>
<svg width="370px" height="145px" viewBox="0 0 370 145" version="1.1" xmlns="http://www.w3.org/2000/svg" xmlns:xlink="http://www.w3.org/1999/xlink">
    <!-- Generator: Sketch 39.1 (31720) - http://www.bohemiancoding.com/sketch -->
    <title>Science Friday logo (2)</title>
    <desc>Created with Sketch.</desc>
    <defs>
        <polygon id="path-1" points="0.06 144.94 369.107 144.94 369.107 0.246 0.06 0.246"></polygon>
    </defs>
    <g id="Page-1" stroke="none" stroke-width="1" fill="none" fill-rule="evenodd">
        <g id="Science-Friday-logo-(2)">
            <mask id="mask-2" fill="white">
                <use xlink:href="#path-1"></use>
            </mask>
            <g id="Clip-2"></g>
            <polyline id="Fill-1" fill="#FBFBFB" mask="url(#mask-2)" points="126.333 3.755 126.333 10.775 120.233 14.283 114.132 10.775 114.132 3.755 120.233 0.246 126.333 3.755"></polyline>
            <path d="M80.801,68.396 C71.189,68.396 64.537,60.413 64.537,50.831 L64.537,50.673 C64.537,41.091 71.34,33.266 80.801,33.266 C86.42,33.266 90.821,35.66 95.145,39.574 L103,30.548 C97.788,25.441 91.466,21.927 80.894,21.927 C63.65,21.927 51.636,34.94 51.636,50.831 L51.636,50.99 C51.636,67.035 63.891,79.735 80.397,79.735 C91.225,79.735 97.64,75.906 103.406,69.755 L95.55,61.848 C91.134,65.844 87.215,68.396 80.801,68.396 L80.801,68.396 Z M113.709,143.851 L126.054,143.851 L126.054,87.966 L113.709,87.966 L113.709,143.851 Z M113.815,78.774 L126.159,78.774 L126.159,22.889 L113.815,22.889 L113.815,78.774 Z M1.037,143.851 L13.381,143.851 L13.381,122.216 L40.147,122.216 L40.147,111.036 L13.381,111.036 L13.381,99.139 L43.751,99.139 L43.751,87.966 L1.037,87.966 L1.037,143.851 L1.037,143.851 Z M88.492,107.205 C88.492,111.913 85.054,115.113 79.031,115.113 L66.533,115.113 L66.533,99.058 L78.789,99.058 C84.811,99.058 88.492,101.775 88.492,107.047 L88.492,107.205 L88.492,107.205 Z M100.988,106.566 L100.988,106.408 C100.988,101.137 99.305,96.743 96.181,93.629 C92.502,89.962 86.974,87.966 79.84,87.966 L54.204,87.966 L54.204,143.851 L66.533,143.851 L66.533,125.964 L76.235,125.964 L88.251,143.851 L102.686,143.851 L88.972,123.89 C96.105,121.253 100.988,115.585 100.988,106.566 L100.988,106.566 Z M26.599,45.319 C16.912,42.849 14.508,41.647 14.508,37.975 L14.508,37.818 C14.508,35.099 16.985,32.942 21.716,32.942 C26.449,32.942 31.331,35.023 36.3,38.456 L42.714,29.196 C37.021,24.647 30.054,22.086 21.868,22.086 C10.424,22.086 2.236,28.791 2.236,38.936 L2.236,39.095 C2.236,50.194 9.539,53.303 20.829,56.177 C30.204,58.573 32.14,60.172 32.14,63.289 L32.14,63.448 C32.14,66.722 29.09,68.711 24.043,68.711 C17.632,68.711 12.346,66.083 7.3,61.93 L0,70.634 C6.728,76.619 15.305,79.578 23.805,79.578 C35.895,79.578 44.397,73.345 44.397,62.247 L44.397,62.089 C44.397,52.349 37.984,48.277 26.599,45.319 L26.599,45.319 Z" id="Fill-3" fill="#FBFBFB" mask="url(#mask-2)"></path>
            <path d="M150.744,45.987 C152.203,37.892 157.563,32.72 164.653,32.72 C171.938,32.72 177.088,37.771 178.289,45.987 L150.744,45.987 L150.744,45.987 Z M164.758,21.927 C149.272,21.927 137.602,34.409 137.602,50.965 C137.602,67.736 149.588,79.9 166.125,79.9 C175.435,79.9 183.261,76.319 189.014,69.409 L181.429,62.283 C176.742,66.849 172.012,69.117 166.322,69.117 C158.151,69.117 152.353,63.937 150.88,56.177 L191.086,56.177 C191.086,56.177 191.162,55.795 191.236,54.887 C191.31,53.971 191.402,52.911 191.402,51.906 C191.402,43.674 189.03,36.211 184.719,30.892 C179.958,25.029 173.063,21.927 164.758,21.927 L164.758,21.927 Z M328.45,45.987 C329.907,37.892 335.282,32.72 342.372,32.72 C349.64,32.72 354.807,37.771 355.994,45.987 L328.45,45.987 L328.45,45.987 Z M362.424,30.892 C357.677,25.029 350.768,21.927 342.461,21.927 C326.977,21.927 315.308,34.409 315.308,50.965 C315.308,67.736 327.294,79.9 343.831,79.9 C353.14,79.9 360.967,76.319 366.718,69.409 L359.132,62.283 C354.448,66.849 349.714,69.117 344.039,69.117 C335.854,69.117 330.055,63.937 328.586,56.177 L368.79,56.177 C368.79,56.177 368.862,55.795 368.94,54.887 C369.014,53.971 369.107,52.911 369.107,51.906 C369.107,43.674 366.733,36.211 362.424,30.892 L362.424,30.892 Z M290.123,68.36 C280.508,68.36 273.856,60.376 273.856,50.795 L273.856,50.629 C273.856,41.053 280.674,33.23 290.123,33.23 C295.739,33.23 300.138,35.624 304.463,39.537 L312.321,30.512 C307.123,25.403 300.786,21.889 290.211,21.889 C272.969,21.889 260.954,34.904 260.954,50.795 L260.954,50.951 C260.954,67.001 273.226,79.696 289.73,79.696 C300.543,79.696 306.957,75.861 312.724,69.719 L304.868,61.809 C300.469,65.805 296.533,68.36 290.123,68.36 L290.123,68.36 Z M277.506,110.397 L264.123,87.966 L249.705,87.966 L271.257,121.82 L271.257,143.851 L283.603,143.851 L283.603,121.578 L305.154,87.966 L291.127,87.966 L277.506,110.397 L277.506,110.397 Z M178.44,116.067 C178.44,125.964 171.621,132.752 161.528,132.752 L151.991,132.752 L151.991,99.056 L161.528,99.056 C171.621,99.056 178.44,106.011 178.44,115.908 L178.44,116.067 L178.44,116.067 Z M161.528,87.966 L139.647,87.966 L139.647,143.851 L161.528,143.851 C179.16,143.851 191.343,131.634 191.343,115.908 L191.343,115.743 C191.343,100.017 179.16,87.966 161.528,87.966 L161.528,87.966 Z M214.051,43.211 L241.219,78.735 L251.717,78.735 L251.717,22.843 L239.537,22.843 L239.537,57.259 L213.254,22.843 L201.87,22.843 L201.87,78.735 L214.051,78.735 L214.051,43.211 L214.051,43.211 Z M235.376,123.125 C235.376,130.192 227.627,134.667 219.697,134.667 C213.464,134.667 210.055,131.866 210.055,127.128 L210.055,126.925 C210.055,121.429 215.085,118.273 222.971,118.273 C227.31,118.273 231.833,119.227 235.376,120.579 L235.376,123.125 L235.376,123.125 Z M223.602,87.53 C214.651,87.53 208.538,89.43 202.366,92.201 L205.987,102.248 C210.925,100.183 215.643,98.765 221.816,98.765 C230.423,98.765 235.168,101.595 235.168,110.412 L235.168,111.454 C231.909,109.938 226.664,108.662 220.15,108.662 C206.03,108.662 197.588,116.291 197.588,127.548 L197.588,127.758 C197.588,139.602 207.876,145 217.444,145 C224.623,145 231.172,142.612 235.061,137.767 L235.061,143.851 L247.541,143.851 L247.541,111.957 C247.541,96.578 239.582,87.53 223.602,87.53 L223.602,87.53 Z" id="Fill-4" fill="#FBFBFB" mask="url(#mask-2)"></path>
        </g>
    </g>
</svg>